<?xml version="1.0" standalone="no"?>
<!DOCTYPE svg PUBLIC "-//W3C//DTD SVG 20010904//EN"
 "http://www.w3.org/TR/2001/REC-SVG-20010904/DTD/svg10.dtd">
<svg version="1.0" xmlns="http://www.w3.org/2000/svg"
 width="225.000000pt" height="225.000000pt" viewBox="0 0 225.000000 225.000000"
 preserveAspectRatio="xMidYMid meet">

<g transform="translate(0.000000,225.000000) scale(0.100000,-0.100000)"
fill="#000000" stroke="none">
<path d="M1140 2243 c-8 -2 -36 -13 -63 -24 -26 -11 -63 -20 -83 -21 -50 -2
-20 -18 34 -18 24 0 57 7 74 16 26 14 35 14 52 4 42 -27 79 -30 144 -14 37 9
82 14 106 11 l41 -6 -29 16 c-29 15 -89 14 -198 -3 -47 -8 -80 2 -58 16 8 6
31 10 50 11 32 1 33 2 10 9 -29 9 -59 11 -80 3z"/>
<path d="M896 2200 c-37 -22 -74 -40 -82 -40 -7 0 -16 -5 -20 -12 -15 -24 79
1 139 38 34 21 77 41 97 45 33 6 32 7 -15 8 -42 1 -62 -6 -119 -39z"/>
<path d="M783 2195 c-18 -7 -51 -31 -75 -53 -24 -22 -56 -46 -73 -55 -26 -14
-27 -16 -8 -17 37 0 72 18 123 66 27 25 66 52 87 60 37 13 37 13 8 13 -16 0
-44 -6 -62 -14z"/>
<path d="M1368 2158 c21 -14 48 -18 115 -18 49 0 97 -5 109 -11 11 -6 22 -8
25 -6 3 3 -12 14 -34 25 -28 15 -65 21 -140 24 -100 4 -101 3 -75 -14z"/>
<path d="M624 2131 c-27 -12 -57 -39 -85 -76 -41 -55 -75 -82 -87 -71 -3 4 7
20 23 36 16 17 24 30 17 30 -22 0 -78 -59 -106 -112 -16 -29 -38 -63 -50 -76
-20 -22 -20 -23 -1 -16 32 11 71 52 90 94 12 27 22 36 35 33 30 -8 77 24 126
88 26 34 61 67 78 75 17 7 24 13 16 13 -8 0 -34 -8 -56 -18z"/>
<path d="M1536 2109 c28 -31 47 -39 125 -49 47 -5 82 -16 101 -30 27 -20 28
-20 17 -1 -20 30 -79 59 -139 67 -30 3 -70 13 -89 21 l-34 13 19 -21z"/>
<path d="M990 2100 c-8 -4 -31 -13 -50 -19 -33 -9 -32 -10 15 -5 37 4 46 3 35
-5 -8 -6 -25 -11 -37 -11 -12 0 -24 -4 -27 -9 -3 -4 13 -5 34 -1 22 4 43 4 45
-1 3 -4 -15 -11 -40 -15 -25 -3 -44 -8 -42 -11 3 -2 28 -1 56 3 40 5 51 10 51
25 0 9 8 20 18 22 13 4 11 5 -5 6 -13 1 -23 7 -23 16 0 17 -8 18 -30 5z"/>
<path d="M1255 2084 c-11 -9 -33 -22 -50 -30 -16 -7 -23 -13 -14 -14 11 0 14
-8 11 -29 -4 -28 -3 -28 55 -35 63 -7 108 -26 63 -26 -14 0 -42 5 -64 11 -43
12 -56 3 -56 -37 0 -18 8 -22 45 -27 25 -4 56 -9 70 -13 22 -5 25 -3 25 18 0
13 7 33 15 44 8 10 15 27 15 37 0 9 6 17 14 17 33 0 22 27 -19 49 -24 13 -46
29 -49 37 -7 18 -36 17 -61 -2z m65 -25 c0 -5 -11 -9 -25 -9 -28 0 -34 16 -7
23 20 4 32 -1 32 -14z m20 -31 c10 -6 -3 -7 -35 -3 -27 4 -57 11 -65 16 -10 6
3 7 35 3 28 -4 57 -11 65 -16z m-96 -37 c-8 -9 -22 12 -17 26 6 15 7 14 13 -3
4 -10 6 -21 4 -23z m36 20 c0 -17 -18 -21 -24 -6 -3 9 0 15 9 15 8 0 15 -4 15
-9z m64 -9 c7 -12 -12 -38 -21 -29 -4 5 -1 12 7 17 13 8 13 10 0 10 -9 0 -22
-6 -29 -12 -10 -11 -11 -10 -6 5 7 17 40 24 49 9z m-55 -58 c17 -4 31 -10 31
-15 0 -9 -57 -1 -80 12 -13 7 -13 8 1 9 9 0 31 -3 48 -6z m28 -38 c8 -8 -16
-8 -56 0 -17 4 -31 10 -31 14 0 8 77 -4 87 -14z"/>
<path d="M854 2055 c24 -18 39 -20 34 -2 -3 6 -15 13 -29 15 -23 2 -23 2 -5
-13z"/>
<path d="M1701 2020 c18 -29 66 -56 126 -70 23 -6 56 -22 73 -36 38 -33 38
-24 0 20 -22 25 -50 41 -98 57 -37 12 -78 29 -92 38 l-25 16 16 -25z"/>
<path d="M901 2014 c0 -11 3 -14 6 -6 3 7 2 16 -1 19 -3 4 -6 -2 -5 -13z"/>
<path d="M985 2011 c-78 -22 -95 -30 -95 -46 0 -8 -7 -21 -16 -29 -8 -9 -11
-16 -5 -16 6 0 13 -11 17 -25 4 -14 11 -24 18 -22 11 4 11 12 0 60 -6 24 -3
27 18 27 14 0 33 -9 43 -20 17 -19 17 -20 -6 -40 l-24 -21 33 16 c21 10 44 14
66 9 27 -5 36 -2 44 13 10 17 7 18 -25 15 l-36 -5 22 32 c12 17 19 31 15 31
-5 0 -3 5 4 12 16 16 15 28 0 27 -7 -1 -40 -9 -73 -18z m44 -11 c-24 -14 -99
-29 -99 -20 0 8 66 27 100 29 13 0 12 -1 -1 -9z m-19 -40 c-12 -22 -12 -22
-34 -14 -32 12 -20 23 37 33 4 0 3 -8 -3 -19z"/>
<path d="M854 2005 c22 -17 36 -19 36 -6 0 10 -24 21 -43 21 -7 0 -3 -7 7 -15z"/>
<path d="M645 1990 c-4 -6 -4 -14 -1 -17 3 -3 0 -13 -6 -20 -10 -12 -8 -14 7
-11 12 2 21 -4 23 -14 6 -30 -26 -20 -43 12 -16 31 -42 32 -30 2 7 -19 -11
-31 -50 -33 -29 0 -29 -1 -8 -11 17 -8 28 -7 48 6 25 16 25 16 36 -11 5 -15 8
-41 6 -57 l-4 -31 -9 25 c-8 24 -9 24 -14 -10 -4 -27 0 -39 18 -57 13 -13 25
-23 27 -23 12 0 4 40 -9 47 -12 7 -12 11 0 28 14 19 15 19 37 -9 l23 -28 47
28 c50 30 56 44 32 64 -13 10 -15 9 -15 -9 0 -22 -55 -58 -64 -42 -6 10 10 25
38 35 15 5 17 9 8 18 -15 15 -15 29 0 26 6 -2 13 4 15 13 3 12 -3 15 -29 12
-31 -3 -31 -2 -10 8 12 7 22 16 22 21 0 13 -28 9 -33 -4 -4 -10 -8 -10 -16 1
-7 11 -5 18 6 26 14 11 14 12 -1 18 -9 4 -16 1 -16 -5 0 -7 -4 -7 -14 1 -10 9
-16 9 -21 1z m55 -90 c0 -5 -9 -14 -20 -20 -15 -8 -20 -8 -20 3 0 8 3 17 7 20
10 10 33 8 33 -3z m15 -29 c6 -11 -29 -33 -39 -24 -7 7 12 33 25 33 4 0 10 -4
14 -9z"/>
<path d="M1490 1976 c0 -3 18 -17 41 -32 40 -25 41 -26 22 -46 -25 -27 -66
-48 -100 -49 l-28 -1 29 -8 c39 -12 81 -2 111 26 l25 23 -6 -57 c-6 -62 9 -99
34 -83 12 7 11 14 -2 39 -9 17 -16 50 -16 72 l0 42 45 -26 c25 -15 45 -25 45
-22 0 16 -14 34 -23 31 -7 -3 -23 4 -36 14 -24 18 -24 20 -8 44 24 37 0 49
-27 14 l-19 -26 -44 25 c-23 14 -43 23 -43 20z"/>
<path d="M317 1906 c-30 -27 -52 -68 -62 -113 -3 -18 -17 -48 -30 -68 -14 -19
-20 -35 -15 -35 21 0 68 62 80 107 7 26 24 67 37 91 27 48 26 51 -10 18z"/>
<path d="M1840 1926 c0 -30 37 -67 99 -100 38 -20 79 -48 90 -63 28 -35 27
-14 -2 28 -12 19 -47 47 -79 64 -31 17 -68 41 -82 54 -15 14 -26 21 -26 17z"/>
<path d="M590 1875 c0 -16 16 -20 24 -6 3 5 -1 11 -9 15 -9 3 -15 0 -15 -9z"/>
<path d="M546 1861 c-3 -5 4 -11 16 -14 25 -7 33 -3 23 12 -8 13 -32 14 -39 2z"/>
<path d="M1015 1821 c-37 -6 -35 -7 32 -14 39 -5 106 -5 150 0 76 7 77 7 33
14 -54 9 -159 9 -215 0z"/>
<path d="M1815 1778 c-16 -13 -34 -23 -40 -24 -5 0 -18 -2 -28 -2 -10 -1 -15
-7 -12 -13 4 -6 13 -8 20 -5 8 3 28 -11 45 -32 17 -20 28 -30 24 -22 -4 8 -13
22 -21 31 -11 14 -11 18 2 29 12 10 18 10 31 -1 15 -12 16 -11 9 11 -8 25 -8
25 14 6 26 -24 28 -3 3 25 -19 19 -19 19 -47 -3z"/>
<path d="M195 1756 c-19 -25 -31 -59 -41 -118 -8 -45 -19 -87 -24 -92 -17 -17
-11 -29 7 -15 25 22 53 90 53 134 0 22 9 59 20 83 10 23 17 42 15 42 -2 0 -16
-15 -30 -34z"/>
<path d="M373 1778 c-4 -7 -20 -40 -35 -73 -22 -48 -24 -54 -7 -32 21 28 39
35 39 16 0 -6 -12 -27 -26 -47 l-26 -37 26 28 26 28 6 -41 c4 -23 10 -36 14
-30 5 8 17 3 37 -14 34 -29 43 -32 43 -14 0 6 18 33 40 59 l40 48 -29 20 c-22
16 -27 26 -23 47 l5 27 -37 -22 c-44 -28 -54 -23 -26 12 24 30 25 38 5 31 -8
-4 -15 -10 -15 -15 0 -6 -7 -21 -16 -35 -13 -19 -20 -22 -30 -13 -11 9 -10 16
7 40 16 23 17 29 5 29 -8 0 -18 -6 -23 -12z m87 -82 c0 -22 -16 -28 -29 -12
-9 11 -9 15 1 19 22 9 28 8 28 -7z m20 -34 c-23 -41 -47 -64 -54 -53 -9 13 42
83 55 75 5 -3 5 -12 -1 -22z m-60 -17 c0 -7 -7 -15 -15 -19 -11 -4 -15 2 -15
26 0 26 2 29 15 18 8 -7 15 -18 15 -25z m94 16 c3 -5 -7 -25 -23 -45 -37 -47
-53 -28 -16 19 28 38 31 40 39 26z"/>
<path d="M1970 1768 c0 -22 52 -81 95 -108 18 -11 43 -35 54 -53 22 -33 29
-22 10 16 -18 37 -159 165 -159 145z"/>
<path d="M782 1740 l-27 -14 45 -6 c36 -4 450 -5 650 -1 l44 1 -24 17 c-21 15
-60 17 -343 17 -262 1 -323 -2 -345 -14z"/>
<path d="M1810 1731 c0 -5 5 -13 10 -16 6 -3 10 -2 10 4 0 5 -4 13 -10 16 -5
3 -10 2 -10 -4z"/>
<path d="M1872 1716 c7 -7 19 -11 25 -9 18 7 5 23 -18 23 -16 0 -18 -2 -7 -14z"/>
<path d="M1739 1681 c19 -24 27 -42 21 -46 -5 -3 -14 -4 -19 -1 -5 3 -12 -1
-15 -9 -7 -20 21 -32 37 -16 17 17 23 14 56 -31 21 -28 31 -36 31 -24 0 10
-11 27 -25 38 -30 24 -34 43 -5 28 16 -9 20 -8 20 5 0 8 -3 15 -7 15 -5 0 -19
16 -32 35 -13 19 -28 35 -33 35 -5 0 2 -14 17 -31 14 -17 24 -34 21 -36 -8 -9
-41 16 -61 46 -11 17 -24 31 -28 31 -5 0 5 -18 22 -39z"/>
<path d="M1845 1702 c-16 -12 -11 -48 10 -71 15 -17 16 -24 6 -30 -10 -6 -9
-10 4 -15 27 -10 38 -7 31 9 -3 9 6 23 24 37 35 25 37 39 11 55 -17 10 -18 9
-13 -10 5 -19 3 -20 -10 -9 -14 11 -16 10 -10 -10 5 -21 4 -22 -11 -9 -15 12
-17 12 -11 -3 8 -21 -5 -21 -22 2 -11 14 -9 19 7 28 17 9 18 12 7 22 -8 6 -18
8 -23 4z"/>
<path d="M754 1673 c-65 -3 -85 -8 -99 -23 -18 -19 -17 -20 14 -20 l33 0 -30
-25 c-17 -14 -43 -25 -59 -25 -28 0 -53 -15 -53 -32 0 -4 19 -8 42 -8 l42 0
-32 -24 c-22 -15 -41 -22 -58 -18 -16 3 -30 -1 -35 -9 -12 -20 -11 -29 5 -29
9 0 12 -8 9 -24 -4 -18 -13 -26 -31 -28 -15 -2 -28 -10 -30 -19 -2 -12 4 -15
28 -11 27 4 30 1 30 -21 0 -22 -5 -26 -45 -31 -33 -5 -45 -12 -45 -24 0 -14 8
-17 45 -14 43 4 45 3 45 -22 0 -23 -4 -26 -36 -26 -40 0 -74 -15 -74 -33 0 -8
17 -11 55 -9 53 4 55 3 55 -22 0 -23 -4 -25 -52 -28 -42 -2 -54 -7 -56 -22 -3
-16 2 -18 50 -15 48 4 53 2 56 -17 2 -17 -4 -23 -29 -28 -17 -3 -43 -6 -56 -6
-18 0 -24 -5 -21 -17 3 -15 12 -17 56 -15 50 4 52 3 52 -22 0 -22 -4 -26 -29
-26 -39 0 -61 -9 -61 -26 0 -10 13 -14 45 -14 41 0 45 -2 45 -25 0 -22 -4 -25
-36 -25 -29 0 -35 -3 -30 -16 3 -9 6 -18 6 -20 0 -2 14 -4 30 -4 26 0 30 -4
30 -26 0 -19 -4 -25 -15 -20 -19 7 -19 -8 0 -28 14 -13 56 -16 278 -16 766 -2
920 0 934 12 15 12 18 42 3 33 -6 -3 -10 5 -10 19 0 19 6 25 27 28 17 2 29 10
31 21 3 13 -3 17 -27 17 -26 0 -31 4 -31 25 0 22 4 25 39 25 42 0 63 16 40 31
-8 5 -29 9 -46 9 -29 0 -33 3 -33 26 0 26 1 27 50 21 44 -5 50 -4 50 12 0 15
-11 20 -50 25 -44 6 -50 9 -50 31 0 23 2 23 56 18 51 -6 56 -4 52 13 -2 15
-13 20 -56 22 -48 3 -52 5 -52 28 0 22 4 24 50 24 36 0 50 4 50 14 0 17 -22
26 -66 26 -30 0 -34 3 -34 26 0 26 2 26 46 21 37 -4 44 -2 40 10 -3 8 -6 16
-6 19 0 2 -18 7 -40 10 -34 6 -40 10 -40 31 0 22 3 25 30 21 24 -4 30 -1 25 9
-3 8 -5 17 -5 19 0 2 -11 4 -24 4 -17 0 -25 7 -28 25 -4 17 -1 25 9 25 11 0
11 4 2 21 -8 16 -17 20 -37 16 -19 -4 -36 2 -57 19 l-30 24 38 0 c20 0 37 4
37 8 0 17 -25 32 -51 32 -16 0 -40 11 -54 24 l-26 25 33 3 33 3 -28 19 c-25
17 -46 18 -225 17 -108 -1 -215 -3 -237 -4 -22 0 -96 1 -165 5 -69 3 -162 3
-206 1z m301 -63 l50 -25 3 -403 c1 -222 -1 -402 -5 -400 -5 2 -35 17 -68 35
-133 69 -264 68 -447 -2 -17 -7 -18 12 -18 308 l0 316 33 25 c19 15 37 26 40
26 4 0 7 -130 7 -290 0 -283 0 -290 20 -290 20 0 20 7 20 328 l0 329 24 22
c38 36 101 51 201 48 72 -2 101 -8 140 -27z m435 6 c75 -39 70 -13 70 -378 0
-285 2 -328 15 -328 13 0 15 39 15 290 0 180 4 290 10 290 5 0 25 -14 45 -31
l35 -31 0 -309 c0 -170 -3 -309 -6 -309 -4 0 -38 11 -76 25 -137 49 -268 43
-390 -19 l-68 -34 0 397 c0 452 -6 421 87 447 67 19 218 13 263 -10z m-555
-801 l40 -13 -50 -2 c-27 -1 -54 -2 -59 -1 -4 1 -52 2 -105 3 l-96 1 50 13
c66 16 170 16 220 -1z m587 3 l53 -13 -105 -5 c-108 -5 -195 -2 -186 7 22 22
162 28 238 11z"/>
<path d="M893 1533 c-18 -7 -16 -48 2 -63 8 -7 15 -20 15 -30 0 -13 -6 -16
-25 -12 -18 3 -25 11 -25 28 0 13 -4 24 -10 24 -5 0 -10 -14 -10 -30 0 -34
-20 -79 -44 -99 -23 -19 -20 -34 4 -21 12 6 28 27 37 46 13 25 23 34 38 32 34
-5 30 -42 -11 -88 -20 -22 -34 -43 -30 -47 10 -11 65 48 78 84 10 28 17 33 38
31 34 -4 36 -27 5 -72 -29 -43 -30 -47 -10 -39 36 13 88 183 56 183 -6 0 -11
-12 -11 -26 0 -20 -4 -25 -21 -22 -12 2 -26 11 -30 21 -5 9 -14 25 -19 35 -21
36 -23 44 -11 51 7 5 24 6 38 3 18 -3 24 -1 19 7 -7 11 -50 14 -73 4z"/>
<path d="M837 1185 c4 -20 -2 -28 -33 -47 -31 -18 -35 -24 -20 -26 30 -6 71
31 74 66 2 23 -1 32 -11 32 -10 0 -13 -8 -10 -25z"/>
<path d="M920 1181 c0 -20 8 -35 22 -45 25 -18 68 -21 68 -6 0 6 -10 10 -23
10 -29 0 -47 18 -47 47 0 13 -4 23 -10 23 -5 0 -10 -13 -10 -29z"/>
<path d="M831 1102 c-37 -41 -66 -132 -42 -132 5 0 12 17 16 37 9 49 22 73 40
73 18 0 20 -52 4 -99 -11 -30 -6 -52 7 -38 21 20 25 187 5 187 -3 0 -17 -13
-30 -28z"/>
<path d="M911 1060 c-2 -59 18 -120 39 -120 13 0 13 3 -5 36 -8 16 -15 46 -15
67 0 34 2 37 19 28 10 -6 23 -23 29 -38 27 -74 25 -70 29 -46 7 36 -56 133
-86 133 -4 0 -9 -27 -10 -60z"/>
<path d="M1280 1521 c-24 -23 -24 -23 -2 -17 15 5 22 3 22 -6 0 -10 2 -11 8 0
5 7 16 10 28 6 17 -6 17 -5 4 7 -8 8 -19 19 -25 24 -7 7 -18 2 -35 -14z"/>
<path d="M1380 1521 c-15 -15 -19 -22 -9 -18 9 3 22 0 28 -6 8 -8 11 -8 11 0
0 6 10 9 23 6 19 -4 20 -3 5 7 -10 6 -21 16 -25 23 -6 9 -15 6 -33 -12z"/>
<path d="M1271 1429 c0 -36 4 -51 17 -59 16 -9 16 -11 -2 -25 -11 -8 -26 -15
-33 -15 -7 0 -13 -5 -13 -11 0 -14 38 -2 73 23 43 30 45 13 3 -27 -21 -19 -32
-35 -26 -35 7 0 28 16 47 35 41 41 57 38 25 -5 -31 -42 -27 -62 5 -21 l26 33
14 -28 13 -29 -5 38 c-7 42 5 48 28 15 9 -13 16 -18 16 -12 1 17 -35 59 -51
60 -7 0 -21 2 -31 2 -10 1 -17 8 -14 15 2 7 16 11 31 9 19 -3 26 0 22 7 -4 6
-16 11 -27 11 -10 0 -19 5 -19 11 0 7 11 9 30 6 17 -4 30 -2 30 3 0 6 -13 10
-30 10 -16 0 -30 5 -30 10 0 6 11 10 24 10 14 0 28 5 31 10 4 7 -21 10 -73 9
l-79 -2 -2 -48z m74 21 c-3 -5 -17 -10 -31 -10 -14 0 -22 4 -19 10 3 6 17 10
31 10 14 0 22 -4 19 -10z m0 -30 c-3 -5 -17 -10 -31 -10 -13 0 -24 5 -24 10 0
6 14 10 31 10 17 0 28 -4 24 -10z m-5 -30 c0 -5 -9 -10 -19 -10 -11 0 -23 5
-26 10 -4 6 5 10 19 10 14 0 26 -4 26 -10z"/>
<path d="M1320 1184 c0 -6 23 -9 63 -7 95 6 99 9 14 14 -50 3 -77 0 -77 -7z"/>
<path d="M1230 1176 c0 -9 7 -16 15 -16 20 0 19 -26 -3 -58 -30 -43 -34 -52
-23 -52 5 0 18 14 28 30 22 38 35 39 22 1 -13 -36 -8 -113 8 -118 8 -3 10 8 6
34 -3 22 0 56 6 78 12 45 0 79 -36 103 -21 13 -23 13 -23 -2z"/>
<path d="M1310 1140 c0 -5 7 -10 16 -10 18 0 53 -38 54 -57 0 -19 -28 -16 -39
4 -5 10 -13 14 -17 10 -14 -13 12 -42 40 -45 38 -5 26 -28 -12 -25 -28 3 -30
1 -23 -24 14 -53 133 -51 144 2 4 26 -13 49 -21 27 -5 -17 -42 -15 -42 3 0 8
9 15 19 15 18 0 51 34 51 52 0 16 -19 7 -25 -12 -7 -23 -45 -27 -45 -5 0 9 7
18 15 21 8 3 17 14 20 24 3 10 14 21 23 23 9 3 -22 5 -70 6 -53 1 -88 -3 -88
-9z m114 -9 c9 -13 -19 -32 -38 -25 -25 10 -19 34 8 34 14 0 27 -4 30 -9z m16
-146 c-13 -15 -47 -20 -74 -9 -32 12 -15 24 35 24 45 0 50 -2 39 -15z"/>
<path d="M2070 1617 c0 -37 14 -63 60 -112 21 -22 47 -58 59 -80 12 -22 20
-31 17 -20 -2 11 -7 32 -10 47 -3 14 -27 50 -52 80 -25 29 -52 67 -60 83 l-13
30 -1 -28z"/>
<path d="M103 1593 c-13 -19 -19 -55 -23 -127 -3 -56 -9 -107 -13 -113 -5 -7
-6 -13 -2 -13 3 0 14 15 25 33 16 25 20 50 20 120 0 49 5 97 10 108 16 29 3
23 -17 -8z"/>
<path d="M296 1493 c-3 -4 -6 -15 -6 -25 0 -24 33 -21 38 3 3 17 -21 33 -32
22z"/>
<path d="M1924 1489 c-9 -15 11 -33 30 -26 9 4 13 13 10 22 -7 17 -30 20 -40
4z"/>
<path d="M2140 1429 c0 -37 7 -58 35 -99 19 -28 42 -71 50 -93 l16 -42 -5 54
c-4 37 -15 68 -37 103 -17 27 -38 66 -45 86 l-13 37 -1 -46z"/>
<path d="M40 1410 c-9 -22 -10 -50 -5 -98 5 -37 9 -88 9 -114 1 -31 4 -42 9
-32 22 39 25 76 10 136 -8 35 -12 80 -10 101 6 45 3 46 -13 7z"/>
<path d="M180 1343 c0 -8 12 -13 29 -13 35 0 42 -8 34 -38 -5 -19 -10 -22 -39
-16 -20 4 -34 2 -34 -4 0 -5 34 -16 75 -24 62 -13 75 -13 75 -2 0 9 -11 14
-30 14 -27 0 -30 3 -30 30 0 33 5 35 44 20 19 -7 26 -6 26 3 0 8 -30 19 -75
28 -61 12 -75 13 -75 2z"/>
<path d="M1910 1342 c0 -5 19 -12 42 -16 l41 -7 -38 -26 c-22 -15 -34 -28 -28
-30 6 -2 31 10 54 26 23 17 53 31 66 31 12 0 23 4 23 10 0 5 -19 8 -42 7 -24
-1 -60 2 -80 7 -24 5 -38 5 -38 -2z"/>
<path d="M2175 1246 c-6 -31 -3 -50 15 -90 12 -28 28 -71 35 -96 l13 -45 1 52
c1 31 -7 70 -20 99 -11 27 -24 64 -28 84 l-8 35 -8 -39z"/>
<path d="M6 1214 c-6 -33 -2 -58 20 -120 14 -43 27 -88 27 -101 -1 -12 3 -20
8 -17 16 10 9 99 -12 144 -12 25 -24 65 -28 90 l-7 45 -8 -41z"/>
<path d="M1930 1213 c0 -37 10 -73 20 -73 5 0 6 9 3 19 -4 17 3 20 66 26 39 4
71 11 71 17 0 5 -27 7 -70 2 -67 -6 -70 -6 -70 15 0 11 -4 21 -10 21 -5 0 -10
-12 -10 -27z"/>
<path d="M159 1189 c-21 -40 2 -66 63 -72 65 -6 88 5 88 41 0 41 -17 52 -82
52 -48 0 -59 -3 -69 -21z m135 -15 c12 -31 -13 -45 -63 -38 -53 7 -66 16 -58
38 9 23 112 23 121 0z"/>
<path d="M1940 1101 c0 -5 34 -11 75 -13 55 -2 75 0 75 10 0 8 -22 12 -75 12
-41 0 -75 -4 -75 -9z"/>
<path d="M233 1078 c-85 -11 -100 -29 -18 -21 30 3 55 4 55 1 0 -3 -22 -19
-50 -36 -74 -46 -67 -60 22 -50 40 5 74 11 77 13 11 12 -9 13 -61 6 -31 -4
-55 -4 -52 0 3 5 27 21 54 36 30 17 50 35 50 46 0 9 -1 16 -2 16 -2 -1 -36 -6
-75 -11z"/>
<path d="M2182 1067 c-16 -37 -15 -57 4 -129 8 -33 13 -74 10 -92 l-6 -31 16
35 c12 26 14 48 9 85 -4 28 -11 75 -14 105 -7 54 -8 54 -19 27z"/>
<path d="M11 1020 c-1 -31 7 -60 23 -90 14 -25 34 -64 46 -87 11 -24 24 -43
27 -43 18 0 -10 89 -43 137 -21 30 -41 71 -45 91 l-7 37 -1 -45z"/>
<path d="M1930 1015 c0 -53 30 -64 73 -25 19 16 40 30 46 30 18 0 24 -26 11
-50 -10 -18 -9 -21 2 -18 8 3 13 20 13 44 0 33 -3 39 -24 42 -16 3 -34 -7 -56
-28 -27 -27 -34 -29 -44 -16 -9 11 -10 20 -1 35 9 17 8 21 -5 21 -10 0 -15
-10 -15 -35z"/>
<path d="M230 927 c-28 -10 -35 -18 -38 -42 -4 -46 10 -59 52 -51 20 4 36 11
36 17 0 6 -14 7 -34 4 -26 -5 -35 -3 -40 11 -10 27 16 45 70 47 46 2 49 1 55
-28 4 -22 8 -26 13 -14 4 8 2 28 -3 42 -9 22 -17 27 -43 26 -18 0 -49 -5 -68
-12z"/>
<path d="M1909 913 c-5 -16 -11 -33 -13 -39 -2 -5 26 -18 63 -27 80 -21 85
-21 89 -8 2 6 -7 11 -20 11 -12 0 -30 4 -38 10 -12 7 -10 11 10 18 14 5 34 11
44 13 11 2 21 9 23 16 3 9 -5 9 -32 2 -33 -9 -39 -8 -52 10 -21 31 -61 27 -74
-6z m59 -21 c3 -16 -2 -22 -17 -22 -24 0 -35 15 -27 36 9 23 40 13 44 -14z"/>
<path d="M2154 883 c-15 -23 -19 -44 -17 -111 1 -45 -2 -94 -8 -109 -8 -22 -7
-24 4 -14 22 18 40 97 34 145 -4 24 -2 58 3 77 12 42 7 46 -16 12z"/>
<path d="M41 852 c-2 -36 25 -89 73 -146 25 -29 50 -63 55 -77 10 -24 10 -24
10 -1 1 36 -24 83 -74 137 -25 27 -50 63 -54 80 -8 25 -9 26 -10 7z"/>
<path d="M1868 801 l-15 -38 68 -31 69 -30 15 28 c17 33 19 50 6 50 -5 0 -12
-11 -15 -25 -7 -26 -21 -31 -45 -16 -12 8 -13 14 -3 35 14 31 -2 36 -18 6 -12
-22 -18 -24 -39 -11 -12 8 -13 15 -3 35 6 14 8 28 3 30 -4 3 -15 -12 -23 -33z"/>
<path d="M325 729 c-27 -16 -54 -30 -60 -32 -5 -3 -7 -8 -3 -12 5 -5 20 -2 35
6 16 7 32 15 37 17 5 3 -1 -13 -14 -36 -12 -22 -20 -46 -18 -53 3 -8 14 5 28
31 12 25 23 46 24 47 0 1 20 -2 43 -6 29 -6 40 -5 37 3 -3 7 -21 13 -41 14
-48 4 -52 8 -19 23 27 13 35 30 14 28 -7 -1 -35 -14 -63 -30z"/>
<path d="M1830 730 c0 -8 21 -36 47 -62 l46 -47 -62 20 c-70 21 -81 23 -81 10
0 -8 114 -41 145 -41 8 0 15 4 15 10 0 16 -109 126 -110 110z"/>
<path d="M2089 699 c-13 -18 -24 -52 -27 -80 -2 -27 -8 -49 -13 -49 -5 0 -24
-14 -43 -31 -27 -23 -41 -48 -56 -99 -11 -37 -30 -80 -42 -95 l-22 -28 27 18
c33 21 62 67 76 120 6 22 21 56 33 75 17 28 23 31 26 17 2 -10 -6 -34 -18 -55
l-22 -37 26 24 c30 28 52 85 61 156 4 28 13 60 21 73 22 34 -2 26 -27 -9z"/>
<path d="M638 710 c-66 -4 -76 -7 -68 -20 8 -12 34 -15 132 -15 l123 0 3 -25
c3 -24 1 -25 -48 -21 -29 1 -72 0 -97 -4 -38 -5 -43 -9 -32 -20 9 -8 54 -14
132 -18 117 -4 117 -4 123 19 4 14 4 38 2 54 -4 25 6 40 26 40 1 0 1 -13 -2
-30 -7 -46 5 -80 28 -80 11 0 20 4 20 8 0 5 12 13 28 19 l27 11 -27 1 c-16 1
-32 9 -37 20 -21 39 52 68 94 38 27 -20 13 -61 -27 -80 l-33 -17 35 0 c19 0
53 -2 75 -5 22 -3 33 -3 25 1 -8 3 -22 8 -30 12 -9 3 0 8 23 11 47 7 53 25 10
29 -29 3 -33 7 -33 33 0 27 2 29 40 29 22 0 40 -4 40 -10 0 -5 -13 -10 -30
-10 -16 0 -30 -4 -30 -10 0 -5 13 -10 30 -10 42 0 59 -33 28 -54 -22 -15 -21
-16 25 -16 44 0 47 1 33 16 -25 25 -19 52 17 74 33 21 67 26 67 11 0 -5 -15
-12 -32 -16 l-33 -8 35 -6 c40 -7 53 -37 24 -58 -17 -12 -17 -13 2 -15 10 0
73 0 139 2 182 4 195 36 17 39 -70 1 -73 2 -70 24 3 21 6 22 125 22 103 0 125
3 140 18 16 16 14 17 -57 18 -268 4 -918 3 -982 -1z"/>
<path d="M104 677 c3 -10 6 -26 6 -35 0 -9 38 -53 85 -97 47 -45 85 -77 85
-71 0 25 -43 78 -90 112 -28 20 -60 53 -71 73 -11 20 -18 28 -15 18z"/>
<path d="M990 665 c0 -10 10 -15 30 -15 20 0 30 5 30 15 0 10 -10 15 -30 15
-20 0 -30 -5 -30 -15z"/>
<path d="M370 621 c-41 -38 -42 -42 -28 -63 25 -38 60 -34 108 11 41 38 42 42
28 63 -25 38 -60 34 -108 -11z m94 10 c11 -17 -4 -37 -46 -64 -35 -23 -44 -25
-55 -14 -18 18 -9 37 30 65 33 23 62 28 71 13z"/>
<path d="M1271 641 c-17 -11 -5 -31 19 -31 24 0 36 20 19 31 -8 5 -16 9 -19 9
-3 0 -11 -4 -19 -9z"/>
<path d="M1752 611 c6 -17 117 -101 122 -92 3 4 -21 29 -53 55 -58 45 -76 55
-69 37z"/>
<path d="M463 530 c-29 -31 -50 -59 -47 -62 3 -3 24 14 46 38 23 25 43 43 45
41 2 -2 -6 -29 -18 -60 -12 -31 -18 -64 -15 -74 6 -14 16 -7 63 40 32 31 54
60 49 64 -4 4 -28 -14 -52 -40 -47 -49 -49 -45 -18 32 15 37 18 68 7 73 -5 2
-32 -21 -60 -52z"/>
<path d="M1750 520 l41 -49 -62 25 c-89 36 -99 19 -29 -51 29 -30 57 -52 61
-49 4 2 -12 23 -37 46 -24 22 -42 43 -40 45 3 3 30 -5 62 -16 88 -33 98 -21
34 44 -68 69 -86 72 -30 5z"/>
<path d="M765 520 c24 -16 56 -18 354 -17 294 0 331 1 362 17 33 18 24 18
-355 18 -377 0 -388 0 -361 -18z"/>
<path d="M212 480 c17 -33 38 -53 78 -77 30 -17 70 -43 88 -58 37 -31 40 -26
12 20 -13 21 -45 46 -89 69 -38 20 -79 49 -91 64 -20 25 -20 24 2 -18z"/>
<path d="M583 443 c-46 -51 -53 -81 -23 -105 31 -25 45 -23 69 11 27 37 16 48
-14 13 -20 -23 -25 -24 -39 -13 -23 19 -20 31 15 74 36 43 41 44 69 15 16 -18
20 -19 20 -5 0 15 -35 47 -53 47 -5 0 -25 -17 -44 -37z"/>
<path d="M1606 472 c-3 -5 11 -32 31 -60 37 -53 38 -82 5 -82 -11 0 -32 20
-53 50 -32 47 -49 61 -49 41 0 -19 81 -111 99 -111 25 0 54 35 47 57 -10 30
-74 115 -80 105z"/>
<path d="M948 449 c-20 -12 153 -32 225 -25 65 6 140 21 127 26 -13 6 -343 4
-352 -1z"/>
<path d="M1876 389 c-15 -12 -40 -47 -56 -80 -16 -32 -42 -70 -57 -84 -22 -20
-24 -24 -8 -19 33 11 75 56 102 108 13 27 35 59 48 72 30 30 8 32 -29 3z"/>
<path d="M770 380 c0 -6 -13 -37 -28 -69 l-28 -59 23 -11 c38 -17 71 -13 84
10 7 15 8 24 1 31 -8 8 -4 16 10 28 28 22 16 55 -24 69 -38 13 -38 13 -38 1z
m58 -48 c-4 -19 -27 -26 -47 -13 -10 7 -11 13 -2 30 10 18 15 19 32 10 11 -5
19 -18 17 -27z m-22 -53 c3 -6 0 -18 -9 -26 -11 -12 -19 -13 -36 -4 -17 10
-19 15 -9 36 9 19 14 22 29 15 10 -6 21 -15 25 -21z"/>
<path d="M1413 371 c-41 -15 -63 -39 -24 -26 16 5 22 -5 42 -60 12 -36 26 -65
31 -65 12 0 10 6 -13 72 -21 57 -22 59 -3 73 28 20 14 23 -33 6z"/>
<path d="M319 352 c18 -34 68 -69 123 -87 29 -10 68 -26 86 -36 32 -19 32 -19
22 2 -15 27 -61 54 -118 69 -26 7 -64 26 -86 43 -30 23 -36 25 -27 9z"/>
<path d="M870 274 c-23 -36 -39 -69 -35 -72 3 -4 14 4 24 17 25 33 66 26 66
-11 -1 -18 4 -28 13 -28 11 0 13 8 8 31 -3 17 -6 53 -6 80 0 68 -19 64 -70
-17z m48 -9 c-2 -9 -8 -12 -17 -6 -11 7 -11 13 0 32 11 20 14 21 17 7 2 -10 2
-25 0 -33z"/>
<path d="M1292 328 c-7 -7 -12 -22 -12 -34 0 -17 10 -26 43 -36 54 -19 60 -51
9 -56 -18 -2 -30 -8 -27 -13 10 -15 41 -10 65 9 33 27 19 58 -31 73 -47 15
-53 42 -11 57 l27 10 -25 1 c-15 1 -31 -4 -38 -11z"/>
<path d="M999 298 c0 -13 -4 -47 -8 -75 -6 -41 -4 -53 6 -53 8 0 13 12 13 30
0 24 4 30 23 30 29 0 43 10 51 36 9 29 -17 54 -55 54 -23 0 -29 -4 -30 -22z
m65 -7 c11 -17 -6 -41 -29 -41 -18 0 -21 4 -17 25 4 25 35 35 46 16z"/>
<path d="M1100 308 c0 -4 9 -8 20 -8 18 0 20 -7 20 -70 0 -40 4 -70 10 -70 6
0 10 30 10 70 0 63 2 70 20 70 11 0 20 5 20 10 0 7 -20 10 -50 9 -27 -2 -50
-6 -50 -11z"/>
<path d="M1225 278 c14 -95 18 -108 27 -108 5 0 7 12 4 28 -3 15 -8 48 -12 75
-3 26 -11 47 -16 47 -6 0 -7 -17 -3 -42z"/>
<path d="M1723 260 c-17 -10 -37 -29 -43 -40 -20 -37 -82 -100 -99 -101 -9 0
-11 -3 -4 -5 25 -11 83 26 123 78 22 29 53 61 68 70 23 16 24 18 7 18 -11 0
-34 -9 -52 -20z"/>
<path d="M484 211 c32 -33 63 -46 141 -56 27 -4 63 -14 80 -23 27 -15 28 -17
9 -20 -12 -2 -39 4 -60 12 l-39 16 25 -20 c35 -28 87 -40 161 -38 35 1 75 -1
89 -5 20 -7 17 -3 -10 15 -25 16 -49 23 -86 23 -43 0 -57 5 -88 32 -38 34 -51
39 -129 47 -27 3 -65 15 -85 27 l-37 21 29 -31z"/>
<path d="M1550 163 c-14 -9 -35 -25 -48 -36 -17 -16 -34 -20 -70 -18 -39 2
-57 -4 -107 -35 -33 -20 -76 -43 -95 -50 l-35 -14 48 4 c33 2 66 15 107 40 32
20 73 39 92 42 l33 5 -24 -20 c-13 -12 -29 -21 -37 -21 -7 0 -15 -4 -18 -9 -4
-5 10 -5 32 0 20 5 40 9 43 9 4 0 29 20 55 43 27 24 63 51 79 60 l30 16 -30 1
c-17 0 -42 -7 -55 -17z"/>
<path d="M925 63 c-39 -12 -59 -13 -90 -5 -35 9 -38 9 -21 -4 31 -22 86 -28
146 -16 31 7 74 12 96 12 39 1 39 1 14 15 -32 18 -82 18 -145 -2z"/>
<path d="M1135 54 c-33 -14 -76 -29 -95 -34 -34 -8 -33 -8 16 -9 33 -1 76 8
118 24 37 14 76 25 89 26 21 0 21 1 2 9 -34 14 -67 10 -130 -16z"/>
</g>
</svg>
