<?xml version="1.0" encoding="UTF-8"?>
<!DOCTYPE svg PUBLIC "-//W3C//DTD SVG 1.1//EN" "http://www.w3.org/Graphics/SVG/1.1/DTD/svg11.dtd">
<svg xmlns="http://www.w3.org/2000/svg" version="1.1" width="1534px" height="632px" style="shape-rendering:geometricPrecision; text-rendering:geometricPrecision; image-rendering:optimizeQuality; fill-rule:evenodd; clip-rule:evenodd" xmlns:xlink="http://www.w3.org/1999/xlink">
<g><path style="opacity:0.976" fill="#01335e" d="M 237.5,-0.5 C 242.167,-0.5 246.833,-0.5 251.5,-0.5C 318.121,17.6438 384.787,36.1438 451.5,55C 482.705,70.2422 495.205,95.0756 489,129.5C 482.82,144.861 475.82,159.861 468,174.5C 455.164,253.351 443.164,332.351 432,411.5C 430.172,424.82 424.839,436.486 416,446.5C 408.058,455.448 399.225,463.281 389.5,470C 363.319,486.929 336.319,502.596 308.5,517C 291.748,525.362 274.081,530.695 255.5,533C 232.875,534.275 211.209,530.275 190.5,521C 153.378,503.283 118.378,482.283 85.5,458C 72.1453,446.993 63.312,433.16 59,416.5C 47.3333,337.833 35.6667,259.167 24,180.5C 18.2124,166.924 11.8791,153.591 5,140.5C 2.6825,134.863 0.849164,129.197 -0.5,123.5C -0.5,116.833 -0.5,110.167 -0.5,103.5C 4.02641,80.6592 17.0264,64.4925 38.5,55C 104.83,36.0045 171.163,17.5045 237.5,-0.5 Z M 445.5,171.5 C 433.443,252.843 421.276,334.177 409,415.5C 404.459,425.717 397.959,434.55 389.5,442C 359.162,463.847 327.162,483.18 293.5,500C 268.033,512.8 241.7,515.134 214.5,507C 201.004,502.5 188.004,496.834 175.5,490C 155.667,478.251 136,466.251 116.5,454C 106.055,446.555 96.5549,438.055 88,428.5C 83.7896,423.208 81.1229,417.208 80,410.5C 68.4263,331.818 56.7597,253.151 45,174.5C 39.1537,159.806 32.487,145.473 25,131.5C 16.4131,108.676 22.2464,90.5089 42.5,77C 107.266,57.8914 172.266,39.5581 237.5,22C 242.5,21.3333 247.5,21.3333 252.5,22C 317.645,39.8692 382.645,58.2025 447.5,77C 466.832,89.8352 472.998,107.335 466,129.5C 464,133.5 462,137.5 460,141.5C 439.906,140.673 419.74,140.173 399.5,140C 394.292,131.317 388.126,130.483 381,137.5C 377.629,146.095 380.462,151.095 389.5,152.5C 394.272,152.563 397.606,150.396 399.5,146C 418.842,145.167 438.175,145.334 457.5,146.5C 454.833,151.833 452.167,157.167 449.5,162.5C 440.824,164.994 438.324,170.328 442,178.5C 443.213,176.075 444.379,173.741 445.5,171.5 Z M 297.5,46.5 C 302.335,47.1605 304.168,49.8271 303,54.5C 298.616,58.5653 295.449,57.7319 293.5,52C 293.901,49.44 295.234,47.6066 297.5,46.5 Z M 83.5,77.5 C 91.8773,77.2743 93.544,80.441 88.5,87C 81.5121,86.8183 79.8454,83.6516 83.5,77.5 Z M 265.5,77.5 C 270.083,76.343 272.75,78.0096 273.5,82.5C 271.349,88.1634 268.182,88.8301 264,84.5C 263.167,81.829 263.667,79.4957 265.5,77.5 Z M 54.5,107.5 C 61.8211,108.319 63.1545,111.486 58.5,117C 52.4467,117.944 50.2801,115.444 52,109.5C 52.9947,108.934 53.828,108.267 54.5,107.5 Z M 235.5,107.5 C 239.703,106.702 242.37,108.369 243.5,112.5C 239.833,119.167 236.167,119.167 232.5,112.5C 233.26,110.64 234.26,108.973 235.5,107.5 Z M 417.5,107.5 C 424.632,107.789 426.298,110.956 422.5,117C 414.408,117.09 412.741,113.923 417.5,107.5 Z M 54.5,137.5 C 61.299,138.109 62.9657,141.275 59.5,147C 51.0304,147.531 49.3638,144.364 54.5,137.5 Z M 175.5,137.5 C 182.297,138.107 183.964,141.274 180.5,147C 172.03,147.531 170.364,144.364 175.5,137.5 Z M 206.5,137.5 C 212.572,138.712 213.905,141.878 210.5,147C 205.057,148.873 202.557,147.04 203,141.5C 203.69,139.65 204.856,138.316 206.5,137.5 Z M 387.5,137.5 C 394.297,138.107 395.964,141.274 392.5,147C 384.03,147.531 382.364,144.364 387.5,137.5 Z M 328.5,167.5 C 336.277,171.043 336.444,174.709 329,178.5C 321.936,175.144 321.77,171.477 328.5,167.5 Z M 358.5,167.5 C 366.217,170.819 366.384,174.486 359,178.5C 353.202,175.03 353.035,171.363 358.5,167.5 Z M 53.5,168.5 C 58.0832,167.343 60.7499,169.01 61.5,173.5C 59.2099,178.881 56.0433,179.548 52,175.5C 51.1668,172.829 51.6668,170.496 53.5,168.5 Z M 83.5,168.5 C 89.4964,167.333 91.9964,169.666 91,175.5C 88,179.5 85,179.5 82,175.5C 81.3911,172.935 81.8911,170.601 83.5,168.5 Z M 202.5,226.5 C 231.835,226.333 261.169,226.5 290.5,227C 292.538,228.236 293.705,230.069 294,232.5C 294.667,260.5 294.667,288.5 294,316.5C 293.654,318.848 292.487,320.681 290.5,322C 261.167,322.667 231.833,322.667 202.5,322C 201.667,321.167 200.833,320.333 200,319.5C 199.333,289.5 199.333,259.5 200,229.5C 201.045,228.627 201.878,227.627 202.5,226.5 Z M 255.5,238.5 C 256.376,238.369 257.043,238.702 257.5,239.5C 255.192,240.873 254.525,240.54 255.5,238.5 Z M 234.5,242.5 C 236.973,242.947 237.14,243.947 235,245.5C 233.272,244.648 233.105,243.648 234.5,242.5 Z M 243.5,242.5 C 246.293,242.74 246.793,243.74 245,245.5C 243.961,244.756 243.461,243.756 243.5,242.5 Z M 263.5,244.5 C 265.337,244.639 265.67,245.306 264.5,246.5C 263.702,246.043 263.369,245.376 263.5,244.5 Z M 272.5,244.5 C 275.548,244.494 276.048,245.494 274,247.5C 272.961,246.756 272.461,245.756 272.5,244.5 Z M 223.5,245.5 C 224.675,245.281 225.675,245.614 226.5,246.5C 224.948,247.798 223.948,247.465 223.5,245.5 Z M 255.5,248.5 C 258.548,248.494 259.048,249.494 257,251.5C 255.961,250.756 255.461,249.756 255.5,248.5 Z M 223.5,251.5 C 225.625,252.368 225.791,253.368 224,254.5C 222.317,253.824 222.15,252.824 223.5,251.5 Z M 267.5,251.5 C 270.293,251.74 270.793,252.74 269,254.5C 267.961,253.756 267.461,252.756 267.5,251.5 Z M 277.5,252.5 C 279.625,253.368 279.791,254.368 278,255.5C 276.317,254.824 276.15,253.824 277.5,252.5 Z M 203.5,256.5 C 206.548,256.494 207.048,257.494 205,259.5C 203.961,258.756 203.461,257.756 203.5,256.5 Z M 358.5,258.5 C 363.755,259.677 365.255,262.677 363,267.5C 358.741,270.126 355.908,268.96 354.5,264C 354.901,261.44 356.234,259.607 358.5,258.5 Z M 231.5,259.5 C 234.548,259.494 235.048,260.494 233,262.5C 231.961,261.756 231.461,260.756 231.5,259.5 Z M 267.5,259.5 C 270.293,259.74 270.793,260.74 269,262.5C 267.961,261.756 267.461,260.756 267.5,259.5 Z M 262.5,261.5 C 264.332,262.14 264.665,263.14 263.5,264.5C 261.481,263.867 261.147,262.867 262.5,261.5 Z M 241.5,262.5 C 243.332,263.14 243.665,264.14 242.5,265.5C 240.481,264.867 240.147,263.867 241.5,262.5 Z M 253.5,262.5 C 255.465,262.948 255.798,263.948 254.5,265.5C 252.481,264.867 252.147,263.867 253.5,262.5 Z M 278.5,263.5 C 281.548,263.494 282.048,264.494 280,266.5C 278.961,265.756 278.461,264.756 278.5,263.5 Z M 206.5,264.5 C 208.465,264.948 208.798,265.948 207.5,267.5C 206.614,266.675 206.281,265.675 206.5,264.5 Z M 219.5,267.5 C 222.548,267.494 223.048,268.494 221,270.5C 219.961,269.756 219.461,268.756 219.5,267.5 Z M 235.5,267.5 C 237.983,267.73 238.483,268.397 237,269.5C 235.97,269.164 235.47,268.497 235.5,267.5 Z M 285.5,267.5 C 287.332,268.14 287.665,269.14 286.5,270.5C 284.481,269.867 284.147,268.867 285.5,267.5 Z M 212.5,270.5 C 216.31,271.754 216.31,272.754 212.5,273.5C 212.5,272.5 212.5,271.5 212.5,270.5 Z M 253.5,270.5 C 255.332,271.14 255.665,272.14 254.5,273.5C 252.481,272.867 252.147,271.867 253.5,270.5 Z M 262.5,271.5 C 264.625,272.368 264.791,273.368 263,274.5C 261.317,273.824 261.15,272.824 262.5,271.5 Z M 226.5,275.5 C 229.674,275.952 230.007,276.952 227.5,278.5C 226.614,277.675 226.281,276.675 226.5,275.5 Z M 244.5,276.5 C 247.293,276.74 247.793,277.74 246,279.5C 244.961,278.756 244.461,277.756 244.5,276.5 Z M 254.5,278.5 C 257.548,278.494 258.048,279.494 256,281.5C 254.961,280.756 254.461,279.756 254.5,278.5 Z M 268.5,278.5 C 269.675,278.281 270.675,278.614 271.5,279.5C 269.948,280.798 268.948,280.465 268.5,278.5 Z M 287.5,280.5 C 289.465,280.948 289.798,281.948 288.5,283.5C 286.481,282.867 286.147,281.867 287.5,280.5 Z M 280.5,282.5 C 282.973,282.947 283.14,283.947 281,285.5C 279.272,284.648 279.105,283.648 280.5,282.5 Z M 236.5,283.5 C 238.465,283.948 238.798,284.948 237.5,286.5C 236.614,285.675 236.281,284.675 236.5,283.5 Z M 262.5,283.5 C 266.31,284.754 266.31,285.754 262.5,286.5C 262.5,285.5 262.5,284.5 262.5,283.5 Z M 275.5,285.5 C 278.548,285.494 279.048,286.494 277,288.5C 275.961,287.756 275.461,286.756 275.5,285.5 Z M 83.5,289.5 C 91.8773,289.274 93.544,292.441 88.5,299C 81.5121,298.818 79.8454,295.652 83.5,289.5 Z M 254.5,289.5 C 257.548,289.494 258.048,290.494 256,292.5C 254.961,291.756 254.461,290.756 254.5,289.5 Z M 386.5,289.5 C 391.083,288.343 393.75,290.01 394.5,294.5C 392.349,300.163 389.182,300.83 385,296.5C 384.391,293.935 384.891,291.601 386.5,289.5 Z M 262.5,292.5 C 264.337,292.639 264.67,293.306 263.5,294.5C 262.702,294.043 262.369,293.376 262.5,292.5 Z M 271.5,292.5 C 274.674,292.952 275.007,293.952 272.5,295.5C 271.614,294.675 271.281,293.675 271.5,292.5 Z M 265.5,299.5 C 267.973,299.947 268.14,300.947 266,302.5C 265.517,301.552 265.351,300.552 265.5,299.5 Z M 255.5,308.5 C 256.376,308.369 257.043,308.702 257.5,309.5C 255.192,310.873 254.525,310.54 255.5,308.5 Z M 84.5,319.5 C 89.6646,319.162 91.8313,321.495 91,326.5C 88,330.5 85,330.5 82,326.5C 81.3333,325.167 81.3333,323.833 82,322.5C 83.045,321.627 83.8783,320.627 84.5,319.5 Z M 387.5,319.5 C 392.665,319.162 394.831,321.495 394,326.5C 391,330.5 388,330.5 385,326.5C 384.162,323.519 384.995,321.186 387.5,319.5 Z M 115.5,349.5 C 119.372,349.43 121.705,351.263 122.5,355C 119.673,360.299 116.173,360.799 112,356.5C 111.576,353.348 112.743,351.014 115.5,349.5 Z M 388.5,349.5 C 394.579,350.777 395.913,353.943 392.5,359C 386.507,360.668 384.007,358.502 385,352.5C 386.145,351.364 387.312,350.364 388.5,349.5 Z M 116.5,379.5 C 124.277,383.043 124.444,386.709 117,390.5C 109.936,387.144 109.77,383.477 116.5,379.5 Z M 144.5,410.5 C 152.288,410.746 153.954,413.913 149.5,420C 142.279,420.013 140.612,416.846 144.5,410.5 Z M 296.5,440.5 C 303.297,441.107 304.964,444.274 301.5,450C 293.349,450.198 291.683,447.031 296.5,440.5 Z M 206.5,470.5 C 211.335,471.16 213.168,473.827 212,478.5C 207.674,482.602 204.508,481.768 202.5,476C 203.007,473.455 204.341,471.621 206.5,470.5 Z"/></g>
<g><path style="opacity:0.837" fill="#01335e" d="M 292.5,43.5 C 297.437,45.0889 302.437,46.5889 307.5,48C 309.843,55.8204 307.01,60.3204 299,61.5C 293.655,61.9269 290.488,59.5936 289.5,54.5C 247.499,54.6667 205.499,54.5 163.5,54C 168.167,52.6667 172.833,51.3333 177.5,50C 214.832,49.5 252.165,49.3333 289.5,49.5C 289.615,47.0532 290.615,45.0532 292.5,43.5 Z M 297.5,46.5 C 295.234,47.6066 293.901,49.44 293.5,52C 295.449,57.7319 298.616,58.5653 303,54.5C 304.168,49.8271 302.335,47.1605 297.5,46.5 Z"/></g>
<g><path style="opacity:0.888" fill="#01335d" d="M 335.5,56.5 C 337.75,56.1814 339.75,56.6814 341.5,58C 318,81.5 294.5,105 271,128.5C 270.5,148.497 270.333,168.497 270.5,188.5C 268.833,188.5 267.167,188.5 265.5,188.5C 265.333,167.831 265.5,147.164 266,126.5C 289.368,103.299 312.535,79.9653 335.5,56.5 Z"/></g>
<g><path style="opacity:0.899" fill="#072c53" d="M 370.5,66.5 C 373.073,66.1485 375.406,66.6485 377.5,68C 352.333,93.1667 327.167,118.333 302,143.5C 301.5,158.496 301.333,173.496 301.5,188.5C 299.833,188.5 298.167,188.5 296.5,188.5C 296.333,172.497 296.5,156.497 297,140.5C 321.702,115.965 346.202,91.2986 370.5,66.5 Z"/></g>
<g><path style="opacity:0.9" fill="#01335d" d="M 264.5,72.5 C 275.749,71.681 279.916,76.681 277,87.5C 269.977,94.5944 263.81,93.9277 258.5,85.5C 204.503,84.3334 150.503,84.1667 96.5,85C 91.4518,93.8752 85.2851,94.7086 78,87.5C 75.7331,83.7984 76.0664,80.465 79,77.5C 83.4211,76.359 87.7544,75.0256 92,73.5C 93.8783,75.0429 95.3783,76.8762 96.5,79C 150.5,79.6667 204.5,79.6667 258.5,79C 260.027,76.3098 262.027,74.1432 264.5,72.5 Z M 83.5,77.5 C 79.8454,83.6516 81.5121,86.8183 88.5,87C 93.544,80.441 91.8773,77.2743 83.5,77.5 Z M 265.5,77.5 C 263.667,79.4957 263.167,81.829 264,84.5C 268.182,88.8301 271.349,88.1634 273.5,82.5C 272.75,78.0096 270.083,76.343 265.5,77.5 Z"/></g>
<g><path style="opacity:0.907" fill="#01325d" d="M 407.5,75.5 C 409.195,76.0114 410.861,76.6781 412.5,77.5C 385.847,104.653 359.014,131.653 332,158.5C 331.202,160.259 331.369,161.926 332.5,163.5C 338.634,167.381 340.134,172.714 337,179.5C 332.534,183.883 327.701,184.383 322.5,181C 316.875,174.04 317.875,168.207 325.5,163.5C 326.314,161.234 326.814,158.9 327,156.5C 354.035,129.632 380.868,102.632 407.5,75.5 Z M 328.5,167.5 C 321.77,171.477 321.936,175.144 329,178.5C 336.444,174.709 336.277,171.043 328.5,167.5 Z"/></g>
<g><path style="opacity:0.878" fill="#01325d" d="M 447.5,93.5 C 449.451,94.7158 450.951,96.3825 452,98.5C 452.499,103.823 452.666,109.156 452.5,114.5C 444.804,114.169 437.138,114.503 429.5,115.5C 425.506,122.912 419.84,124.412 412.5,120C 407.858,112.926 409.192,107.259 416.5,103C 422.644,101.654 426.978,103.82 429.5,109.5C 435.463,110.496 441.463,110.829 447.5,110.5C 447.5,104.833 447.5,99.1667 447.5,93.5 Z M 417.5,107.5 C 412.741,113.923 414.408,117.09 422.5,117C 426.298,110.956 424.632,107.789 417.5,107.5 Z"/></g>
<g><path style="opacity:0.916" fill="#01335d" d="M 53.5,102.5 C 59.6911,101.925 64.0244,104.425 66.5,110C 120.503,110.833 174.503,110.667 228.5,109.5C 231.634,102.644 236.634,100.811 243.5,104C 247.367,107.66 248.534,112.16 247,117.5C 243.1,122.533 238.267,123.7 232.5,121C 230.586,119.587 229.253,117.753 228.5,115.5C 174.503,114.333 120.503,114.167 66.5,115C 63.0991,122.03 57.7657,124.03 50.5,121C 46.7973,117.604 45.6306,113.437 47,108.5C 48.4361,105.558 50.6028,103.558 53.5,102.5 Z M 54.5,107.5 C 53.828,108.267 52.9947,108.934 52,109.5C 50.2801,115.444 52.4467,117.944 58.5,117C 63.1545,111.486 61.8211,108.319 54.5,107.5 Z M 235.5,107.5 C 234.26,108.973 233.26,110.64 232.5,112.5C 236.167,119.167 239.833,119.167 243.5,112.5C 242.37,108.369 239.703,106.702 235.5,107.5 Z"/></g>
<g><path style="opacity:0.8" fill="#01335e" d="M 54.5,132.5 C 60.4824,132.166 64.1491,134.833 65.5,140.5C 93.5,140.5 121.5,140.5 149.5,140.5C 149.5,152.167 149.5,163.833 149.5,175.5C 139.5,175.5 129.5,175.5 119.5,175.5C 119.5,225.833 119.5,276.167 119.5,326.5C 111.804,326.169 104.138,326.503 96.5,327.5C 92.5062,334.912 86.8395,336.412 79.5,332C 74.6434,324.782 75.9768,319.115 83.5,315C 89.4545,313.977 93.7879,316.144 96.5,321.5C 102.463,322.496 108.463,322.829 114.5,322.5C 114.5,271.833 114.5,221.167 114.5,170.5C 124.5,170.5 134.5,170.5 144.5,170.5C 144.5,162.167 144.5,153.833 144.5,145.5C 118.167,145.5 91.8333,145.5 65.5,145.5C 65.2007,148.642 63.5341,150.809 60.5,152C 47.2905,152.588 43.6238,146.921 49.5,135C 51.3146,134.243 52.9812,133.41 54.5,132.5 Z M 54.5,137.5 C 49.3638,144.364 51.0304,147.531 59.5,147C 62.9657,141.275 61.299,138.109 54.5,137.5 Z M 84.5,319.5 C 83.8783,320.627 83.045,321.627 82,322.5C 81.3333,323.833 81.3333,325.167 82,326.5C 85,330.5 88,330.5 91,326.5C 91.8313,321.495 89.6646,319.162 84.5,319.5 Z"/></g>
<g><path style="opacity:0.86" fill="#01335e" d="M 175.5,132.5 C 185.665,133.494 189.165,138.827 186,148.5C 184.587,150.414 182.753,151.747 180.5,152.5C 179.504,158.463 179.171,164.463 179.5,170.5C 189.833,170.5 200.167,170.5 210.5,170.5C 210.5,176.5 210.5,182.5 210.5,188.5C 208.833,188.5 207.167,188.5 205.5,188.5C 205.5,184.167 205.5,179.833 205.5,175.5C 195.5,175.5 185.5,175.5 175.5,175.5C 175.831,167.804 175.497,160.138 174.5,152.5C 167.644,149.366 165.811,144.366 169,137.5C 170.805,135.174 172.972,133.508 175.5,132.5 Z M 175.5,137.5 C 170.364,144.364 172.03,147.531 180.5,147C 183.964,141.274 182.297,138.107 175.5,137.5 Z"/></g>
<g><path style="opacity:0.81" fill="#01325d" d="M 205.5,132.5 C 211.072,132.282 215.072,134.615 217.5,139.5C 225.138,140.497 232.804,140.831 240.5,140.5C 240.5,156.5 240.5,172.5 240.5,188.5C 238.833,188.5 237.167,188.5 235.5,188.5C 235.5,174.167 235.5,159.833 235.5,145.5C 229.491,145.334 223.491,145.501 217.5,146C 212.874,153.141 207.041,154.308 200,149.5C 195.946,141.831 197.779,136.164 205.5,132.5 Z M 206.5,137.5 C 204.856,138.316 203.69,139.65 203,141.5C 202.557,147.04 205.057,148.873 210.5,147C 213.905,141.878 212.572,138.712 206.5,137.5 Z"/></g>
<g><path style="opacity:0.989" fill="#01335e" d="M 513.5,159.5 C 579.167,159.5 644.833,159.5 710.5,159.5C 710.5,175.5 710.5,191.5 710.5,207.5C 688.833,207.5 667.167,207.5 645.5,207.5C 645.5,287.167 645.5,366.833 645.5,446.5C 623.167,446.5 600.833,446.5 578.5,446.5C 578.5,366.833 578.5,287.167 578.5,207.5C 556.833,207.5 535.167,207.5 513.5,207.5C 513.5,191.5 513.5,175.5 513.5,159.5 Z"/></g>
<g><path style="opacity:0.99" fill="#01335e" d="M 762.5,159.5 C 792.5,159.5 822.5,159.5 852.5,159.5C 863.859,207.268 875.692,254.934 888,302.5C 891.667,319.833 895.333,337.167 899,354.5C 913.89,289.606 929.724,224.939 946.5,160.5C 976.159,159.5 1005.83,159.167 1035.5,159.5C 1035.5,255.167 1035.5,350.833 1035.5,446.5C 1014.5,446.5 993.5,446.5 972.5,446.5C 972.667,379.499 972.5,312.499 972,245.5C 956.431,312.11 939.764,378.443 922,444.5C 913.565,445.818 904.898,446.485 896,446.5C 887.102,446.485 878.435,445.818 870,444.5C 853.546,379.016 837.879,313.349 823,247.5C 822.5,313.832 822.333,380.166 822.5,446.5C 802.5,446.5 782.5,446.5 762.5,446.5C 762.5,350.833 762.5,255.167 762.5,159.5 Z"/></g>
<g><path style="opacity:0.983" fill="#01335e" d="M 1104.5,159.5 C 1126.83,159.5 1149.17,159.5 1171.5,159.5C 1171.5,239.167 1171.5,318.833 1171.5,398.5C 1204.5,398.5 1237.5,398.5 1270.5,398.5C 1270.5,414.5 1270.5,430.5 1270.5,446.5C 1215.17,446.5 1159.83,446.5 1104.5,446.5C 1104.5,350.833 1104.5,255.167 1104.5,159.5 Z"/></g>
<g><path style="opacity:0.988" fill="#01335e" d="M 1322.5,159.5 C 1366.53,159.038 1410.53,159.538 1454.5,161C 1474.3,163.476 1490.46,172.31 1503,187.5C 1508.92,196.257 1512.25,205.924 1513,216.5C 1513.91,235.867 1513.57,255.201 1512,274.5C 1506.18,292.318 1494.01,303.151 1475.5,307C 1496.38,311.882 1509.22,324.715 1514,345.5C 1514.33,367.167 1514.67,388.833 1515,410.5C 1516.15,419.137 1520.15,426.137 1527,431.5C 1527.5,437.157 1527.67,442.824 1527.5,448.5C 1511.16,448.667 1494.83,448.5 1478.5,448C 1462.48,444.645 1453.31,434.811 1451,418.5C 1450.67,395.5 1450.33,372.5 1450,349.5C 1448.73,338.234 1442.57,331.401 1431.5,329C 1417.5,328.5 1403.5,328.333 1389.5,328.5C 1389.5,367.833 1389.5,407.167 1389.5,446.5C 1367.17,446.5 1344.83,446.5 1322.5,446.5C 1322.5,350.833 1322.5,255.167 1322.5,159.5 Z M 1389.5,204.5 C 1404.17,204.333 1418.84,204.5 1433.5,205C 1440.26,206.763 1444.76,210.93 1447,217.5C 1449,235.833 1449,254.167 1447,272.5C 1444.52,281.304 1438.69,286.137 1429.5,287C 1416.17,287.5 1402.84,287.667 1389.5,287.5C 1389.5,259.833 1389.5,232.167 1389.5,204.5 Z"/></g>
<g><path style="opacity:0.84" fill="#02325c" d="M 52.5,163.5 C 63.8424,162.668 68.009,167.668 65,178.5C 63.4293,180.923 61.2626,182.256 58.5,182.5C 58.6665,192.506 58.4998,202.506 58,212.5C 57.0575,197.488 53.5575,183.155 47.5,169.5C 48.4649,166.872 50.1315,164.872 52.5,163.5 Z M 53.5,168.5 C 51.6668,170.496 51.1668,172.829 52,175.5C 56.0433,179.548 59.2099,178.881 61.5,173.5C 60.7499,169.01 58.0832,167.343 53.5,168.5 Z"/></g>
<g><path style="opacity:0.909" fill="#01335d" d="M 82.5,163.5 C 94.5942,162.916 98.5942,168.249 94.5,179.5C 92.9288,181.415 90.9288,182.415 88.5,182.5C 88.1668,216.507 88.5001,250.507 89.5,284.5C 96.912,288.494 98.412,294.16 94,301.5C 85.2082,306.514 79.3749,304.181 76.5,294.5C 76.8723,289.744 79.2057,286.411 83.5,284.5C 84.4999,250.507 84.8332,216.507 84.5,182.5C 76.9307,180.017 74.7641,175.017 78,167.5C 79.3968,165.93 80.8968,164.596 82.5,163.5 Z M 83.5,168.5 C 81.8911,170.601 81.3911,172.935 82,175.5C 85,179.5 88,179.5 91,175.5C 91.9964,169.666 89.4964,167.333 83.5,168.5 Z M 83.5,289.5 C 79.8454,295.652 81.5121,298.818 88.5,299C 93.544,292.441 91.8773,289.274 83.5,289.5 Z"/></g>
<g><path style="opacity:0.843" fill="#042e5c" d="M 354.5,163.5 C 357.518,163.335 360.518,163.502 363.5,164C 366.033,165.033 367.699,166.867 368.5,169.5C 381.154,170.333 393.82,170.833 406.5,171C 416.333,180.833 426.167,190.667 436,200.5C 436.851,203.053 436.518,205.386 435,207.5C 424.5,197 414,186.5 403.5,176C 391.838,175.5 380.171,175.333 368.5,175.5C 367.375,180.45 364.209,183.116 359,183.5C 350.651,181.812 347.651,176.812 350,168.5C 351.707,166.963 353.207,165.296 354.5,163.5 Z M 358.5,167.5 C 353.035,171.363 353.202,175.03 359,178.5C 366.384,174.486 366.217,170.819 358.5,167.5 Z"/></g>
<g><path style="opacity:0.921" fill="#01335e" d="M 327.5,193.5 C 332.933,193.05 336.6,195.384 338.5,200.5C 356.157,201.333 373.824,201.833 391.5,202C 404.333,214.833 417.167,227.667 430,240.5C 430.808,242.579 430.641,244.579 429.5,246.5C 415.681,233.181 402.014,219.681 388.5,206C 371.823,205.167 355.157,205.334 338.5,206.5C 336.607,211.58 332.941,213.913 327.5,213.5C 327.5,211.833 327.5,210.167 327.5,208.5C 331.372,208.57 333.705,206.737 334.5,203C 333.323,199.651 330.99,198.151 327.5,198.5C 327.5,196.833 327.5,195.167 327.5,193.5 Z"/></g>
<g><path style="opacity:0.901" fill="#01335e" d="M 207.5,199.5 C 208.833,199.5 210.167,199.5 211.5,199.5C 212.521,205.788 213.188,212.121 213.5,218.5C 210.5,218.5 207.5,218.5 204.5,218.5C 204.5,214.833 204.5,211.167 204.5,207.5C 205.5,207.5 206.5,207.5 207.5,207.5C 207.5,204.833 207.5,202.167 207.5,199.5 Z"/></g>
<g><path style="opacity:0.901" fill="#043059" d="M 231.5,199.5 C 233.167,199.5 234.833,199.5 236.5,199.5C 237.521,205.788 238.188,212.121 238.5,218.5C 235.5,218.5 232.5,218.5 229.5,218.5C 229.812,212.121 230.479,205.788 231.5,199.5 Z"/></g>
<g><path style="opacity:0.911" fill="#01315c" d="M 256.5,199.5 C 258.167,199.5 259.833,199.5 261.5,199.5C 262.521,205.788 263.188,212.121 263.5,218.5C 260.5,218.5 257.5,218.5 254.5,218.5C 254.812,212.121 255.479,205.788 256.5,199.5 Z"/></g>
<g><path style="opacity:0.907" fill="#01335d" d="M 281.5,199.5 C 283.167,199.5 284.833,199.5 286.5,199.5C 287.521,205.788 288.188,212.121 288.5,218.5C 285.5,218.5 282.5,218.5 279.5,218.5C 279.812,212.121 280.479,205.788 281.5,199.5 Z"/></g>
<g><path style="opacity:0.847" fill="#01335e" d="M 144.5,201.5 C 151.5,201.5 158.5,201.5 165.5,201.5C 165.5,202.833 165.5,204.167 165.5,205.5C 160.167,205.5 154.833,205.5 149.5,205.5C 149.5,264.5 149.5,323.5 149.5,382.5C 179.833,382.5 210.167,382.5 240.5,382.5C 240.5,422.833 240.5,463.167 240.5,503.5C 246.509,503.666 252.509,503.499 258.5,503C 262.831,496.082 268.497,494.749 275.5,499C 262.956,505.591 249.622,507.757 235.5,505.5C 235.5,466.167 235.5,426.833 235.5,387.5C 205.167,387.5 174.833,387.5 144.5,387.5C 144.5,325.5 144.5,263.5 144.5,201.5 Z"/></g>
<g><path style="opacity:0.863" fill="#01335d" d="M 201.5,220.5 C 231.502,220.333 261.502,220.5 291.5,221C 295.333,222.167 297.833,224.667 299,228.5C 299.667,259.167 299.667,289.833 299,320.5C 297.73,324.77 294.896,327.27 290.5,328C 261.167,328.667 231.833,328.667 202.5,328C 198.104,327.27 195.27,324.77 194,320.5C 193.333,289.833 193.333,259.167 194,228.5C 195.353,224.65 197.853,221.983 201.5,220.5 Z M 202.5,226.5 C 201.878,227.627 201.045,228.627 200,229.5C 199.333,259.5 199.333,289.5 200,319.5C 200.833,320.333 201.667,321.167 202.5,322C 231.833,322.667 261.167,322.667 290.5,322C 292.487,320.681 293.654,318.848 294,316.5C 294.667,288.5 294.667,260.5 294,232.5C 293.705,230.069 292.538,228.236 290.5,227C 261.169,226.5 231.835,226.333 202.5,226.5 Z M 255.5,238.5 C 254.525,240.54 255.192,240.873 257.5,239.5C 257.043,238.702 256.376,238.369 255.5,238.5 Z M 234.5,242.5 C 233.105,243.648 233.272,244.648 235,245.5C 237.14,243.947 236.973,242.947 234.5,242.5 Z M 243.5,242.5 C 243.461,243.756 243.961,244.756 245,245.5C 246.793,243.74 246.293,242.74 243.5,242.5 Z M 263.5,244.5 C 263.369,245.376 263.702,246.043 264.5,246.5C 265.67,245.306 265.337,244.639 263.5,244.5 Z M 272.5,244.5 C 272.461,245.756 272.961,246.756 274,247.5C 276.048,245.494 275.548,244.494 272.5,244.5 Z M 223.5,245.5 C 223.948,247.465 224.948,247.798 226.5,246.5C 225.675,245.614 224.675,245.281 223.5,245.5 Z M 255.5,248.5 C 255.461,249.756 255.961,250.756 257,251.5C 259.048,249.494 258.548,248.494 255.5,248.5 Z M 223.5,251.5 C 222.15,252.824 222.317,253.824 224,254.5C 225.791,253.368 225.625,252.368 223.5,251.5 Z M 267.5,251.5 C 267.461,252.756 267.961,253.756 269,254.5C 270.793,252.74 270.293,251.74 267.5,251.5 Z M 277.5,252.5 C 276.15,253.824 276.317,254.824 278,255.5C 279.791,254.368 279.625,253.368 277.5,252.5 Z M 203.5,256.5 C 203.461,257.756 203.961,258.756 205,259.5C 207.048,257.494 206.548,256.494 203.5,256.5 Z M 231.5,259.5 C 231.461,260.756 231.961,261.756 233,262.5C 235.048,260.494 234.548,259.494 231.5,259.5 Z M 267.5,259.5 C 267.461,260.756 267.961,261.756 269,262.5C 270.793,260.74 270.293,259.74 267.5,259.5 Z M 262.5,261.5 C 261.147,262.867 261.481,263.867 263.5,264.5C 264.665,263.14 264.332,262.14 262.5,261.5 Z M 241.5,262.5 C 240.147,263.867 240.481,264.867 242.5,265.5C 243.665,264.14 243.332,263.14 241.5,262.5 Z M 253.5,262.5 C 252.147,263.867 252.481,264.867 254.5,265.5C 255.798,263.948 255.465,262.948 253.5,262.5 Z M 278.5,263.5 C 278.461,264.756 278.961,265.756 280,266.5C 282.048,264.494 281.548,263.494 278.5,263.5 Z M 206.5,264.5 C 206.281,265.675 206.614,266.675 207.5,267.5C 208.798,265.948 208.465,264.948 206.5,264.5 Z M 219.5,267.5 C 219.461,268.756 219.961,269.756 221,270.5C 223.048,268.494 222.548,267.494 219.5,267.5 Z M 235.5,267.5 C 235.47,268.497 235.97,269.164 237,269.5C 238.483,268.397 237.983,267.73 235.5,267.5 Z M 285.5,267.5 C 284.147,268.867 284.481,269.867 286.5,270.5C 287.665,269.14 287.332,268.14 285.5,267.5 Z M 212.5,270.5 C 212.5,271.5 212.5,272.5 212.5,273.5C 216.31,272.754 216.31,271.754 212.5,270.5 Z M 253.5,270.5 C 252.147,271.867 252.481,272.867 254.5,273.5C 255.665,272.14 255.332,271.14 253.5,270.5 Z M 262.5,271.5 C 261.15,272.824 261.317,273.824 263,274.5C 264.791,273.368 264.625,272.368 262.5,271.5 Z M 226.5,275.5 C 226.281,276.675 226.614,277.675 227.5,278.5C 230.007,276.952 229.674,275.952 226.5,275.5 Z M 244.5,276.5 C 244.461,277.756 244.961,278.756 246,279.5C 247.793,277.74 247.293,276.74 244.5,276.5 Z M 254.5,278.5 C 254.461,279.756 254.961,280.756 256,281.5C 258.048,279.494 257.548,278.494 254.5,278.5 Z M 268.5,278.5 C 268.948,280.465 269.948,280.798 271.5,279.5C 270.675,278.614 269.675,278.281 268.5,278.5 Z M 287.5,280.5 C 286.147,281.867 286.481,282.867 288.5,283.5C 289.798,281.948 289.465,280.948 287.5,280.5 Z M 280.5,282.5 C 279.105,283.648 279.272,284.648 281,285.5C 283.14,283.947 282.973,282.947 280.5,282.5 Z M 236.5,283.5 C 236.281,284.675 236.614,285.675 237.5,286.5C 238.798,284.948 238.465,283.948 236.5,283.5 Z M 262.5,283.5 C 262.5,284.5 262.5,285.5 262.5,286.5C 266.31,285.754 266.31,284.754 262.5,283.5 Z M 275.5,285.5 C 275.461,286.756 275.961,287.756 277,288.5C 279.048,286.494 278.548,285.494 275.5,285.5 Z M 254.5,289.5 C 254.461,290.756 254.961,291.756 256,292.5C 258.048,290.494 257.548,289.494 254.5,289.5 Z M 262.5,292.5 C 262.369,293.376 262.702,294.043 263.5,294.5C 264.67,293.306 264.337,292.639 262.5,292.5 Z M 271.5,292.5 C 271.281,293.675 271.614,294.675 272.5,295.5C 275.007,293.952 274.674,292.952 271.5,292.5 Z M 265.5,299.5 C 265.351,300.552 265.517,301.552 266,302.5C 268.14,300.947 267.973,299.947 265.5,299.5 Z M 255.5,308.5 C 254.525,310.54 255.192,310.873 257.5,309.5C 257.043,308.702 256.376,308.369 255.5,308.5 Z"/></g>
<g><path style="opacity:0.881" fill="#01325c" d="M 327.5,223.5 C 332.941,223.087 336.607,225.42 338.5,230.5C 351.154,231.333 363.82,231.833 376.5,232C 391.667,247.167 406.833,262.333 422,277.5C 422.667,285.5 422.667,293.5 422,301.5C 420.785,309.837 419.619,318.17 418.5,326.5C 412.158,326.334 405.825,326.5 399.5,327C 396.239,334.092 390.906,336.092 383.5,333C 378.908,328.268 378.408,323.101 382,317.5C 389.542,312.56 395.375,314.06 399.5,322C 405.491,322.499 411.491,322.666 417.5,322.5C 417.667,308.163 417.5,293.829 417,279.5C 402.833,265.333 388.667,251.167 374.5,237C 362.486,236.167 350.486,236.334 338.5,237.5C 336.112,241.86 332.446,243.86 327.5,243.5C 327.5,241.833 327.5,240.167 327.5,238.5C 333.512,237.962 335.179,235.129 332.5,230C 330.975,228.991 329.308,228.491 327.5,228.5C 327.5,226.833 327.5,225.167 327.5,223.5 Z M 387.5,319.5 C 384.995,321.186 384.162,323.519 385,326.5C 388,330.5 391,330.5 394,326.5C 394.831,321.495 392.665,319.162 387.5,319.5 Z"/></g>
<g><path style="opacity:0.953" fill="#01335e" d="M 205.5,229.5 C 232.835,229.333 260.169,229.5 287.5,230C 288.308,230.308 288.975,230.808 289.5,231.5C 290.658,259.791 290.825,288.124 290,316.5C 289.692,317.308 289.192,317.975 288.5,318.5C 260.876,319.658 233.209,319.824 205.5,319C 204.692,318.692 204.025,318.192 203.5,317.5C 202.342,289.209 202.175,260.876 203,232.5C 203.698,231.309 204.531,230.309 205.5,229.5 Z M 255.5,238.5 C 254.525,240.54 255.192,240.873 257.5,239.5C 257.043,238.702 256.376,238.369 255.5,238.5 Z M 234.5,242.5 C 233.105,243.648 233.272,244.648 235,245.5C 237.14,243.947 236.973,242.947 234.5,242.5 Z M 243.5,242.5 C 243.461,243.756 243.961,244.756 245,245.5C 246.793,243.74 246.293,242.74 243.5,242.5 Z M 263.5,244.5 C 263.369,245.376 263.702,246.043 264.5,246.5C 265.67,245.306 265.337,244.639 263.5,244.5 Z M 272.5,244.5 C 272.461,245.756 272.961,246.756 274,247.5C 276.048,245.494 275.548,244.494 272.5,244.5 Z M 223.5,245.5 C 223.948,247.465 224.948,247.798 226.5,246.5C 225.675,245.614 224.675,245.281 223.5,245.5 Z M 255.5,248.5 C 255.461,249.756 255.961,250.756 257,251.5C 259.048,249.494 258.548,248.494 255.5,248.5 Z M 223.5,251.5 C 222.15,252.824 222.317,253.824 224,254.5C 225.791,253.368 225.625,252.368 223.5,251.5 Z M 267.5,251.5 C 267.461,252.756 267.961,253.756 269,254.5C 270.793,252.74 270.293,251.74 267.5,251.5 Z M 277.5,252.5 C 276.15,253.824 276.317,254.824 278,255.5C 279.791,254.368 279.625,253.368 277.5,252.5 Z M 203.5,256.5 C 203.461,257.756 203.961,258.756 205,259.5C 207.048,257.494 206.548,256.494 203.5,256.5 Z M 231.5,259.5 C 231.461,260.756 231.961,261.756 233,262.5C 235.048,260.494 234.548,259.494 231.5,259.5 Z M 267.5,259.5 C 267.461,260.756 267.961,261.756 269,262.5C 270.793,260.74 270.293,259.74 267.5,259.5 Z M 262.5,261.5 C 261.147,262.867 261.481,263.867 263.5,264.5C 264.665,263.14 264.332,262.14 262.5,261.5 Z M 241.5,262.5 C 240.147,263.867 240.481,264.867 242.5,265.5C 243.665,264.14 243.332,263.14 241.5,262.5 Z M 253.5,262.5 C 252.147,263.867 252.481,264.867 254.5,265.5C 255.798,263.948 255.465,262.948 253.5,262.5 Z M 278.5,263.5 C 278.461,264.756 278.961,265.756 280,266.5C 282.048,264.494 281.548,263.494 278.5,263.5 Z M 206.5,264.5 C 206.281,265.675 206.614,266.675 207.5,267.5C 208.798,265.948 208.465,264.948 206.5,264.5 Z M 219.5,267.5 C 219.461,268.756 219.961,269.756 221,270.5C 223.048,268.494 222.548,267.494 219.5,267.5 Z M 235.5,267.5 C 235.47,268.497 235.97,269.164 237,269.5C 238.483,268.397 237.983,267.73 235.5,267.5 Z M 285.5,267.5 C 284.147,268.867 284.481,269.867 286.5,270.5C 287.665,269.14 287.332,268.14 285.5,267.5 Z M 212.5,270.5 C 212.5,271.5 212.5,272.5 212.5,273.5C 216.31,272.754 216.31,271.754 212.5,270.5 Z M 253.5,270.5 C 252.147,271.867 252.481,272.867 254.5,273.5C 255.665,272.14 255.332,271.14 253.5,270.5 Z M 262.5,271.5 C 261.15,272.824 261.317,273.824 263,274.5C 264.791,273.368 264.625,272.368 262.5,271.5 Z M 226.5,275.5 C 226.281,276.675 226.614,277.675 227.5,278.5C 230.007,276.952 229.674,275.952 226.5,275.5 Z M 244.5,276.5 C 244.461,277.756 244.961,278.756 246,279.5C 247.793,277.74 247.293,276.74 244.5,276.5 Z M 254.5,278.5 C 254.461,279.756 254.961,280.756 256,281.5C 258.048,279.494 257.548,278.494 254.5,278.5 Z M 268.5,278.5 C 268.948,280.465 269.948,280.798 271.5,279.5C 270.675,278.614 269.675,278.281 268.5,278.5 Z M 287.5,280.5 C 286.147,281.867 286.481,282.867 288.5,283.5C 289.798,281.948 289.465,280.948 287.5,280.5 Z M 280.5,282.5 C 279.105,283.648 279.272,284.648 281,285.5C 283.14,283.947 282.973,282.947 280.5,282.5 Z M 236.5,283.5 C 236.281,284.675 236.614,285.675 237.5,286.5C 238.798,284.948 238.465,283.948 236.5,283.5 Z M 262.5,283.5 C 262.5,284.5 262.5,285.5 262.5,286.5C 266.31,285.754 266.31,284.754 262.5,283.5 Z M 275.5,285.5 C 275.461,286.756 275.961,287.756 277,288.5C 279.048,286.494 278.548,285.494 275.5,285.5 Z M 254.5,289.5 C 254.461,290.756 254.961,291.756 256,292.5C 258.048,290.494 257.548,289.494 254.5,289.5 Z M 262.5,292.5 C 262.369,293.376 262.702,294.043 263.5,294.5C 264.67,293.306 264.337,292.639 262.5,292.5 Z M 271.5,292.5 C 271.281,293.675 271.614,294.675 272.5,295.5C 275.007,293.952 274.674,292.952 271.5,292.5 Z M 265.5,299.5 C 265.351,300.552 265.517,301.552 266,302.5C 268.14,300.947 267.973,299.947 265.5,299.5 Z M 255.5,308.5 C 254.525,310.54 255.192,310.873 257.5,309.5C 257.043,308.702 256.376,308.369 255.5,308.5 Z"/></g>
<g><path style="opacity:0.914" fill="#01325c" d="M 179.5,232.5 C 183.167,232.5 186.833,232.5 190.5,232.5C 190.5,235.5 190.5,238.5 190.5,241.5C 184.121,241.188 177.788,240.521 171.5,239.5C 171.5,237.833 171.5,236.167 171.5,234.5C 174.698,235.036 177.365,234.369 179.5,232.5 Z"/></g>
<g><path style="opacity:0.905" fill="#01325c" d="M 302.5,232.5 C 308.879,232.812 315.212,233.479 321.5,234.5C 321.5,236.167 321.5,237.833 321.5,239.5C 315.212,240.521 308.879,241.188 302.5,241.5C 302.5,238.5 302.5,235.5 302.5,232.5 Z"/></g>
<g><path style="opacity:0.849" fill="#01325d" d="M 354.5,254.5 C 367.138,253.484 371.305,258.817 367,270.5C 363.319,273.36 359.152,274.193 354.5,273C 352.308,271.641 350.641,269.808 349.5,267.5C 342.197,266.503 334.863,266.169 327.5,266.5C 327.5,264.833 327.5,263.167 327.5,261.5C 334.863,261.831 342.197,261.497 349.5,260.5C 350.72,258.019 352.386,256.019 354.5,254.5 Z M 358.5,258.5 C 356.234,259.607 354.901,261.44 354.5,264C 355.908,268.96 358.741,270.126 363,267.5C 365.255,262.677 363.755,259.677 358.5,258.5 Z"/></g>
<g><path style="opacity:0.915" fill="#01315c" d="M 179.5,257.5 C 183.167,257.5 186.833,257.5 190.5,257.5C 190.5,260.5 190.5,263.5 190.5,266.5C 184.121,266.188 177.788,265.521 171.5,264.5C 171.5,262.833 171.5,261.167 171.5,259.5C 174.698,260.036 177.365,259.369 179.5,257.5 Z"/></g>
<g><path style="opacity:0.906" fill="#01315c" d="M 302.5,257.5 C 308.879,257.812 315.212,258.479 321.5,259.5C 321.5,261.167 321.5,262.833 321.5,264.5C 315.212,265.521 308.879,266.188 302.5,266.5C 302.5,263.5 302.5,260.5 302.5,257.5 Z"/></g>
<g><path style="opacity:0.903" fill="#01305c" d="M 179.5,282.5 C 183.167,282.5 186.833,282.5 190.5,282.5C 190.5,285.5 190.5,288.5 190.5,291.5C 184.121,291.188 177.788,290.521 171.5,289.5C 171.5,287.833 171.5,286.167 171.5,284.5C 174.698,285.036 177.365,284.369 179.5,282.5 Z"/></g>
<g><path style="opacity:0.906" fill="#01305c" d="M 302.5,282.5 C 308.879,282.812 315.212,283.479 321.5,284.5C 321.5,286.167 321.5,287.833 321.5,289.5C 315.212,290.521 308.879,291.188 302.5,291.5C 302.5,288.5 302.5,285.5 302.5,282.5 Z"/></g>
<g><path style="opacity:0.893" fill="#01325c" d="M 385.5,284.5 C 398.29,284.122 402.123,289.789 397,301.5C 389.534,306.12 383.701,304.62 379.5,297C 362.17,296.5 344.837,296.333 327.5,296.5C 327.5,294.833 327.5,293.167 327.5,291.5C 344.837,291.667 362.17,291.5 379.5,291C 381.027,288.31 383.027,286.143 385.5,284.5 Z M 386.5,289.5 C 384.891,291.601 384.391,293.935 385,296.5C 389.182,300.83 392.349,300.163 394.5,294.5C 393.75,290.01 391.083,288.343 386.5,289.5 Z"/></g>
<g><path style="opacity:0.903" fill="#01335d" d="M 179.5,307.5 C 183.167,307.5 186.833,307.5 190.5,307.5C 190.5,310.5 190.5,313.5 190.5,316.5C 186.833,316.5 183.167,316.5 179.5,316.5C 179.5,315.5 179.5,314.5 179.5,313.5C 176.833,313.5 174.167,313.5 171.5,313.5C 171.5,312.167 171.5,310.833 171.5,309.5C 174.698,310.036 177.365,309.369 179.5,307.5 Z"/></g>
<g><path style="opacity:0.906" fill="#01335e" d="M 302.5,307.5 C 308.879,307.812 315.212,308.479 321.5,309.5C 321.5,310.833 321.5,312.167 321.5,313.5C 318.833,313.5 316.167,313.5 313.5,313.5C 313.5,314.5 313.5,315.5 313.5,316.5C 309.833,316.5 306.167,316.5 302.5,316.5C 302.5,313.5 302.5,310.5 302.5,307.5 Z"/></g>
<g><path style="opacity:0.903" fill="#01335e" d="M 327.5,329.5 C 338.833,329.5 350.167,329.5 361.5,329.5C 361.83,369.406 361.497,409.239 360.5,449C 359.069,449.465 357.903,450.299 357,451.5C 356.5,412.168 356.333,372.835 356.5,333.5C 346.833,333.5 337.167,333.5 327.5,333.5C 327.5,332.167 327.5,330.833 327.5,329.5 Z"/></g>
<g><path style="opacity:0.91" fill="#01335e" d="M 204.5,330.5 C 207.5,330.5 210.5,330.5 213.5,330.5C 213.188,336.879 212.521,343.212 211.5,349.5C 210.167,349.5 208.833,349.5 207.5,349.5C 207.5,346.833 207.5,344.167 207.5,341.5C 206.5,341.5 205.5,341.5 204.5,341.5C 204.5,337.833 204.5,334.167 204.5,330.5 Z"/></g>
<g><path style="opacity:0.91" fill="#043059" d="M 229.5,330.5 C 232.5,330.5 235.5,330.5 238.5,330.5C 238.188,336.879 237.521,343.212 236.5,349.5C 234.833,349.5 233.167,349.5 231.5,349.5C 230.479,343.212 229.812,336.879 229.5,330.5 Z"/></g>
<g><path style="opacity:0.91" fill="#01315c" d="M 254.5,330.5 C 257.5,330.5 260.5,330.5 263.5,330.5C 263.188,336.879 262.521,343.212 261.5,349.5C 259.833,349.5 258.167,349.5 256.5,349.5C 255.479,343.212 254.812,336.879 254.5,330.5 Z"/></g>
<g><path style="opacity:0.91" fill="#01325d" d="M 279.5,330.5 C 282.5,330.5 285.5,330.5 288.5,330.5C 288.188,336.879 287.521,343.212 286.5,349.5C 284.833,349.5 283.167,349.5 281.5,349.5C 280.479,343.212 279.812,336.879 279.5,330.5 Z"/></g>
<g><path style="opacity:0.894" fill="#02325c" d="M 115.5,344.5 C 124.898,345.281 128.398,350.281 126,359.5C 122.702,364.22 118.202,365.72 112.5,364C 109.967,362.967 108.301,361.133 107.5,358.5C 98.1667,357.833 88.8333,357.167 79.5,356.5C 78.7542,355.264 78.4208,353.93 78.5,352.5C 88.1896,352.832 97.8563,352.498 107.5,351.5C 109.033,347.753 111.7,345.419 115.5,344.5 Z M 115.5,349.5 C 112.743,351.014 111.576,353.348 112,356.5C 116.173,360.799 119.673,360.299 122.5,355C 121.705,351.263 119.372,349.43 115.5,349.5 Z"/></g>
<g><path style="opacity:0.884" fill="#01325c" d="M 387.5,344.5 C 393.158,344.321 397.158,346.821 399.5,352C 404.489,352.499 409.489,352.666 414.5,352.5C 414.579,353.93 414.246,355.264 413.5,356.5C 408.868,357.328 404.202,357.828 399.5,358C 396.523,363.82 391.856,365.82 385.5,364C 379.533,360.608 378.033,355.774 381,349.5C 382.805,347.174 384.972,345.508 387.5,344.5 Z M 388.5,349.5 C 387.312,350.364 386.145,351.364 385,352.5C 384.007,358.502 386.507,360.668 392.5,359C 395.913,353.943 394.579,350.777 388.5,349.5 Z"/></g>
<g><path style="opacity:0.878" fill="#01335d" d="M 175.5,350.5 C 207.071,352.439 238.738,353.106 270.5,352.5C 270.5,392.833 270.5,433.167 270.5,473.5C 286.837,473.333 303.17,473.5 319.5,474C 317.5,475.333 315.5,476.667 313.5,478C 297.503,478.5 281.503,478.667 265.5,478.5C 265.5,438.167 265.5,397.833 265.5,357.5C 235.5,357.5 205.5,357.5 175.5,357.5C 175.5,355.167 175.5,352.833 175.5,350.5 Z"/></g>
<g><path style="opacity:0.834" fill="#01305c" d="M 296.5,352.5 C 308.167,352.5 319.833,352.5 331.5,352.5C 331.667,390.501 331.5,428.501 331,466.5C 329.846,467.743 328.512,468.743 327,469.5C 326.5,432.168 326.333,394.835 326.5,357.5C 318.167,357.5 309.833,357.5 301.5,357.5C 301.167,383.842 301.5,410.175 302.5,436.5C 307.591,439.358 309.424,443.692 308,449.5C 304.252,455.542 299.085,457.042 292.5,454C 286.897,447.96 287.231,442.293 293.5,437C 294.448,436.517 295.448,436.351 296.5,436.5C 296.5,408.5 296.5,380.5 296.5,352.5 Z M 296.5,440.5 C 291.683,447.031 293.349,450.198 301.5,450C 304.964,444.274 303.297,441.107 296.5,440.5 Z"/></g>
<g><path style="opacity:0.88" fill="#01325d" d="M 112.5,375.5 C 123.324,374.156 127.824,378.823 126,389.5C 122.683,394.606 118.183,396.106 112.5,394C 109.967,392.967 108.301,391.133 107.5,388.5C 99.5277,387.502 91.5277,387.169 83.5,387.5C 83.5,385.833 83.5,384.167 83.5,382.5C 91.5277,382.831 99.5277,382.498 107.5,381.5C 108.497,378.845 110.164,376.845 112.5,375.5 Z M 116.5,379.5 C 109.77,383.477 109.936,387.144 117,390.5C 124.444,386.709 124.277,383.043 116.5,379.5 Z"/></g>
<g><path style="opacity:0.921" fill="#01335e" d="M 387.5,382.5 C 394.833,382.5 402.167,382.5 409.5,382.5C 409.5,384.167 409.5,385.833 409.5,387.5C 403.5,387.5 397.5,387.5 391.5,387.5C 391.833,401.849 391.499,416.182 390.5,430.5C 389.522,430.977 388.689,431.643 388,432.5C 387.5,415.837 387.333,399.17 387.5,382.5 Z"/></g>
<g><path style="opacity:0.911" fill="#01335d" d="M 143.5,405.5 C 154.769,404.734 158.936,409.734 156,420.5C 152.13,425.563 147.296,426.73 141.5,424C 139.586,422.587 138.253,420.753 137.5,418.5C 122.178,417.667 106.844,417.167 91.5,417C 90.8333,416 90.1667,415 89.5,414C 105.51,413.833 121.51,413.333 137.5,412.5C 138.833,409.507 140.833,407.173 143.5,405.5 Z M 144.5,410.5 C 140.612,416.846 142.279,420.013 149.5,420C 153.954,413.913 152.288,410.746 144.5,410.5 Z"/></g>
<g><path style="opacity:0.916" fill="#01335d" d="M 175.5,413.5 C 187.167,413.5 198.833,413.5 210.5,413.5C 210.167,431.179 210.5,448.846 211.5,466.5C 217.139,469.547 218.973,474.214 217,480.5C 213.702,485.22 209.202,486.72 203.5,485C 197.794,481.544 196.294,476.711 199,470.5C 200.413,468.586 202.247,467.253 204.5,466.5C 205.499,450.18 205.833,433.847 205.5,417.5C 196.833,417.5 188.167,417.5 179.5,417.5C 179.5,427.833 179.5,438.167 179.5,448.5C 163.497,448.667 147.497,448.5 131.5,448C 129.004,446.92 126.67,445.586 124.5,444C 141.497,443.5 158.497,443.333 175.5,443.5C 175.5,433.5 175.5,423.5 175.5,413.5 Z M 206.5,470.5 C 204.341,471.621 203.007,473.455 202.5,476C 204.508,481.768 207.674,482.602 212,478.5C 213.168,473.827 211.335,471.16 206.5,470.5 Z"/></g>
<g><path style="opacity:0.863" fill="#03315a" d="M 172.5,466.5 C 181.085,464.279 186.085,467.446 187.5,476C 187.519,481.686 185.519,482.686 181.5,479C 183.524,474.674 182.19,471.841 177.5,470.5C 175.668,471.248 174.001,472.248 172.5,473.5C 171.3,472.469 169.966,471.635 168.5,471C 170.041,469.629 171.375,468.129 172.5,466.5 Z"/></g>
<g><path style="opacity:0.947" fill="#01325d" d="M 173.5,631.5 C 170.5,631.5 167.5,631.5 164.5,631.5C 155.185,628.22 151.518,621.553 153.5,611.5C 156.833,611.5 160.167,611.5 163.5,611.5C 162.971,615.192 163.971,618.358 166.5,621C 170.7,622.31 173.367,620.81 174.5,616.5C 173.806,613.912 172.64,611.579 171,609.5C 163.616,605.116 157.949,599.116 154,591.5C 152.662,576.506 159.496,570.006 174.5,572C 182.899,575.291 186.233,581.458 184.5,590.5C 181.167,590.5 177.833,590.5 174.5,590.5C 175.406,583.986 172.739,581.152 166.5,582C 163.993,585.207 164.159,588.374 167,591.5C 172,595.833 177,600.167 182,604.5C 188.442,616.668 185.609,625.668 173.5,631.5 Z"/></g>
<g><path style="opacity:0.953" fill="#01335e" d="M 302.5,631.5 C 299.5,631.5 296.5,631.5 293.5,631.5C 288.078,630.176 284.245,626.843 282,621.5C 281.333,608.167 281.333,594.833 282,581.5C 284.783,574.523 289.949,571.189 297.5,571.5C 305.983,571.493 311.483,575.493 314,583.5C 314.667,595.167 314.667,606.833 314,618.5C 312.42,624.909 308.586,629.242 302.5,631.5 Z M 296.5,581.5 C 298.993,581.329 300.826,582.329 302,584.5C 302.667,595.833 302.667,607.167 302,618.5C 298.51,622.588 295.51,622.255 293,617.5C 292.333,606.833 292.333,596.167 293,585.5C 293.69,583.65 294.856,582.316 296.5,581.5 Z"/></g>
<g><path style="opacity:0.951" fill="#01335e" d="M 600.5,631.5 C 597.5,631.5 594.5,631.5 591.5,631.5C 584.44,629.598 580.273,624.931 579,617.5C 578.333,606.833 578.333,596.167 579,585.5C 581.635,574.087 588.802,569.587 600.5,572C 606,573.5 609.5,577 611,582.5C 611.499,586.486 611.666,590.486 611.5,594.5C 608.167,594.5 604.833,594.5 601.5,594.5C 601.737,590.727 601.237,587.06 600,583.5C 596.626,580.595 593.626,580.928 591,584.5C 590.333,595.833 590.333,607.167 591,618.5C 593.729,621.864 596.729,622.197 600,619.5C 601.108,615.914 601.608,612.247 601.5,608.5C 604.833,608.5 608.167,608.5 611.5,608.5C 612.954,616.461 610.954,623.294 605.5,629C 603.685,629.757 602.019,630.59 600.5,631.5 Z"/></g>
<g><path style="opacity:0.956" fill="#01335d" d="M 1040.5,631.5 C 1037.83,631.5 1035.17,631.5 1032.5,631.5C 1027.18,629.682 1023.68,626.016 1022,620.5C 1021.33,607.833 1021.33,595.167 1022,582.5C 1023.6,576.562 1027.44,573.062 1033.5,572C 1049.33,570.334 1056.33,577.5 1054.5,593.5C 1050.83,593.5 1047.17,593.5 1043.5,593.5C 1043.82,590.022 1043.32,586.688 1042,583.5C 1039.72,581.016 1037.22,580.849 1034.5,583C 1033.35,594.757 1033.18,606.591 1034,618.5C 1036.86,622.352 1039.86,622.352 1043,618.5C 1043.5,615.518 1043.66,612.518 1043.5,609.5C 1041.5,609.5 1039.5,609.5 1037.5,609.5C 1037.5,606.5 1037.5,603.5 1037.5,600.5C 1043.17,600.5 1048.83,600.5 1054.5,600.5C 1054.5,610.5 1054.5,620.5 1054.5,630.5C 1052.17,630.5 1049.83,630.5 1047.5,630.5C 1047.72,629.325 1047.39,628.325 1046.5,627.5C 1044.71,629.316 1042.71,630.649 1040.5,631.5 Z"/></g>
<g><path style="opacity:0.939" fill="#01335d" d="M 1336.5,631.5 C 1333.5,631.5 1330.5,631.5 1327.5,631.5C 1317.96,628.45 1313.96,621.783 1315.5,611.5C 1319.17,611.5 1322.83,611.5 1326.5,611.5C 1324.49,618.981 1327.16,622.147 1334.5,621C 1336.44,618.847 1336.94,616.347 1336,613.5C 1330.33,607.833 1324.67,602.167 1319,596.5C 1314.79,588.059 1315.96,580.559 1322.5,574C 1338.57,568.024 1346.9,573.524 1347.5,590.5C 1343.83,590.5 1340.17,590.5 1336.5,590.5C 1338.17,584.014 1335.83,581.181 1329.5,582C 1327.6,583.808 1327.1,585.975 1328,588.5C 1333.67,594.167 1339.33,599.833 1345,605.5C 1350.62,617.206 1347.79,625.873 1336.5,631.5 Z"/></g>
<g><path style="opacity:0.964" fill="#01335e" d="M 1375.5,631.5 C 1372.5,631.5 1369.5,631.5 1366.5,631.5C 1360.18,630.013 1356.35,626.013 1355,619.5C 1354.33,607.5 1354.33,595.5 1355,583.5C 1357.16,575.409 1362.49,571.409 1371,571.5C 1379,571.486 1384.33,575.153 1387,582.5C 1387.67,595.167 1387.67,607.833 1387,620.5C 1385.25,626.423 1381.41,630.089 1375.5,631.5 Z M 1369.5,581.5 C 1373.11,581.379 1375.27,583.045 1376,586.5C 1376.91,597.559 1376.57,608.559 1375,619.5C 1371.9,622.353 1369.24,622.02 1367,618.5C 1366.33,606.833 1366.33,595.167 1367,583.5C 1367.99,582.934 1368.83,582.267 1369.5,581.5 Z"/></g>
<g><path style="opacity:0.953" fill="#01335d" d="M 1533.5,581.5 C 1533.5,585.5 1533.5,589.5 1533.5,593.5C 1529.83,593.5 1526.17,593.5 1522.5,593.5C 1522.75,590.091 1522.42,586.758 1521.5,583.5C 1518.33,580.665 1515.5,580.998 1513,584.5C 1512.33,595.833 1512.33,607.167 1513,618.5C 1515.6,621.774 1518.44,622.107 1521.5,619.5C 1522.42,616.242 1522.75,612.909 1522.5,609.5C 1520.83,609.5 1519.17,609.5 1517.5,609.5C 1517.5,606.5 1517.5,603.5 1517.5,600.5C 1522.83,600.5 1528.17,600.5 1533.5,600.5C 1533.5,610.5 1533.5,620.5 1533.5,630.5C 1531.47,630.662 1529.47,630.495 1527.5,630C 1526.81,628.933 1526.31,627.766 1526,626.5C 1524.22,628.794 1522.05,630.461 1519.5,631.5C 1516.83,631.5 1514.17,631.5 1511.5,631.5C 1505.33,629.482 1501.83,625.149 1501,618.5C 1500.08,605.776 1500.41,593.11 1502,580.5C 1508.55,571.214 1517.05,569.047 1527.5,574C 1530.12,576.114 1532.12,578.614 1533.5,581.5 Z"/></g>
<g><path style="opacity:0.896" fill="#01325e" d="M 35.5,572.5 C 46.1667,572.5 56.8333,572.5 67.5,572.5C 67.5,576.167 67.5,579.833 67.5,583.5C 64.1667,583.5 60.8333,583.5 57.5,583.5C 57.5,599.167 57.5,614.833 57.5,630.5C 53.5,630.5 49.5,630.5 45.5,630.5C 45.5,614.833 45.5,599.167 45.5,583.5C 42.1667,583.5 38.8333,583.5 35.5,583.5C 35.5,579.833 35.5,576.167 35.5,572.5 Z"/></g>
<g><path style="opacity:0.942" fill="#01335e" d="M 73.5,572.5 C 80.8409,572.334 88.1742,572.5 95.5,573C 98.5478,573.606 101.048,575.106 103,577.5C 104.591,584.392 104.924,591.392 104,598.5C 102.833,599.667 101.667,600.833 100.5,602C 103.268,603.762 104.768,606.262 105,609.5C 105.107,616.638 105.94,623.638 107.5,630.5C 104.15,630.665 100.817,630.498 97.5,630C 96.6667,629.167 95.8333,628.333 95,627.5C 94.871,621.086 94.2043,614.753 93,608.5C 90.8646,606.722 88.3646,606.055 85.5,606.5C 85.5,614.5 85.5,622.5 85.5,630.5C 81.5,630.5 77.5,630.5 73.5,630.5C 73.5,611.167 73.5,591.833 73.5,572.5 Z M 85.5,582.5 C 92.2386,580.74 94.9053,583.24 93.5,590C 94.9053,596.76 92.2386,599.26 85.5,597.5C 85.5,592.5 85.5,587.5 85.5,582.5 Z"/></g>
<g><path style="opacity:0.941" fill="#01335e" d="M 134.5,631.5 C 131.5,631.5 128.5,631.5 125.5,631.5C 120.027,630.162 116.194,626.829 114,621.5C 113.5,605.17 113.333,588.837 113.5,572.5C 117.167,572.5 120.833,572.5 124.5,572.5C 124.333,587.17 124.5,601.837 125,616.5C 127.06,621.971 130.06,622.638 134,618.5C 134.5,603.17 134.667,587.837 134.5,572.5C 138.167,572.5 141.833,572.5 145.5,572.5C 145.667,589.17 145.5,605.837 145,622.5C 142.511,626.832 139.011,629.832 134.5,631.5 Z"/></g>
<g><path style="opacity:0.927" fill="#01325e" d="M 189.5,572.5 C 200.167,572.5 210.833,572.5 221.5,572.5C 221.5,576.167 221.5,579.833 221.5,583.5C 218.167,583.5 214.833,583.5 211.5,583.5C 211.5,599.167 211.5,614.833 211.5,630.5C 207.5,630.5 203.5,630.5 199.5,630.5C 199.5,614.833 199.5,599.167 199.5,583.5C 196.167,583.5 192.833,583.5 189.5,583.5C 189.5,579.833 189.5,576.167 189.5,572.5 Z"/></g>
<g><path style="opacity:0.937" fill="#01335e" d="M 224.5,572.5 C 228.5,572.5 232.5,572.5 236.5,572.5C 237.21,583.304 238.71,593.971 241,604.5C 242.728,593.801 244.561,583.134 246.5,572.5C 249.5,572.5 252.5,572.5 255.5,572.5C 257.1,583.53 258.933,594.53 261,605.5C 262.641,594.51 264.141,583.51 265.5,572.5C 269.167,572.5 272.833,572.5 276.5,572.5C 272.95,591.799 269.617,611.132 266.5,630.5C 262.833,630.5 259.167,630.5 255.5,630.5C 254.303,620.642 252.47,610.975 250,601.5C 248.333,610.833 246.667,620.167 245,629.5C 241.606,630.456 238.106,630.789 234.5,630.5C 231.166,611.166 227.833,591.832 224.5,572.5 Z"/></g>
<g><path style="opacity:0.946" fill="#01325d" d="M 322.5,572.5 C 329.841,572.334 337.174,572.5 344.5,573C 348.896,573.73 351.73,576.23 353,580.5C 353.667,586.5 353.667,592.5 353,598.5C 349.355,600.337 349.022,602.337 352,604.5C 352.973,606.392 353.64,608.392 354,610.5C 354.063,617.371 354.896,624.037 356.5,630.5C 353.15,630.665 349.817,630.498 346.5,630C 345.692,629.692 345.025,629.192 344.5,628.5C 342.896,621.958 342.062,615.292 342,608.5C 339.865,606.722 337.365,606.055 334.5,606.5C 334.5,614.5 334.5,622.5 334.5,630.5C 330.5,630.5 326.5,630.5 322.5,630.5C 322.5,611.167 322.5,591.833 322.5,572.5 Z M 334.5,582.5 C 341.239,580.74 343.905,583.24 342.5,590C 343.905,596.76 341.239,599.26 334.5,597.5C 334.5,592.5 334.5,587.5 334.5,582.5 Z"/></g>
<g><path style="opacity:0.951" fill="#01325e" d="M 359.5,572.5 C 370.167,572.5 380.833,572.5 391.5,572.5C 391.5,576.167 391.5,579.833 391.5,583.5C 388.167,583.5 384.833,583.5 381.5,583.5C 381.5,599.167 381.5,614.833 381.5,630.5C 377.833,630.5 374.167,630.5 370.5,630.5C 370.5,614.833 370.5,599.167 370.5,583.5C 366.833,583.5 363.167,583.5 359.5,583.5C 359.5,579.833 359.5,576.167 359.5,572.5 Z"/></g>
<g><path style="opacity:0.954" fill="#01335e" d="M 398.5,572.5 C 402.167,572.5 405.833,572.5 409.5,572.5C 409.5,580.5 409.5,588.5 409.5,596.5C 413.167,596.5 416.833,596.5 420.5,596.5C 420.5,588.5 420.5,580.5 420.5,572.5C 424.167,572.5 427.833,572.5 431.5,572.5C 431.5,591.833 431.5,611.167 431.5,630.5C 427.833,630.5 424.167,630.5 420.5,630.5C 420.5,622.833 420.5,615.167 420.5,607.5C 416.833,607.5 413.167,607.5 409.5,607.5C 409.5,615.167 409.5,622.833 409.5,630.5C 405.833,630.5 402.167,630.5 398.5,630.5C 398.5,611.167 398.5,591.833 398.5,572.5 Z"/></g>
<g><path style="opacity:0.939" fill="#01335e" d="M 436.5,573.5 C 440.634,572.515 444.968,572.182 449.5,572.5C 450.957,579.705 453.123,586.705 456,593.5C 458,586.833 460,580.167 462,573.5C 465.73,572.54 469.563,572.207 473.5,572.5C 469.836,583.99 465.669,595.323 461,606.5C 460.5,614.493 460.334,622.493 460.5,630.5C 456.833,630.5 453.167,630.5 449.5,630.5C 449.666,622.16 449.5,613.827 449,605.5C 445.056,594.633 440.889,583.967 436.5,573.5 Z"/></g>
<g><path style="opacity:0.932" fill="#01335e" d="M 489.5,572.5 C 494.5,572.5 499.5,572.5 504.5,572.5C 506.6,584.167 508.766,595.833 511,607.5C 513.945,595.941 516.445,584.274 518.5,572.5C 523.5,572.5 528.5,572.5 533.5,572.5C 533.5,591.833 533.5,611.167 533.5,630.5C 529.833,630.5 526.167,630.5 522.5,630.5C 522.667,619.495 522.5,608.495 522,597.5C 519.766,608.502 517.6,619.502 515.5,630.5C 511.97,631.011 508.804,630.344 506,628.5C 503.872,618.191 501.872,607.858 500,597.5C 499.5,608.495 499.333,619.495 499.5,630.5C 496.167,630.5 492.833,630.5 489.5,630.5C 489.5,611.167 489.5,591.833 489.5,572.5 Z"/></g>
<g><path style="opacity:0.95" fill="#01335d" d="M 550.5,572.5 C 554.833,572.5 559.167,572.5 563.5,572.5C 567.167,591.833 570.833,611.167 574.5,630.5C 570.5,630.5 566.5,630.5 562.5,630.5C 562.058,626.846 561.724,623.179 561.5,619.5C 558.167,619.5 554.833,619.5 551.5,619.5C 551.206,623.1 550.54,626.6 549.5,630C 546.183,630.498 542.85,630.665 539.5,630.5C 542.653,611.067 546.32,591.734 550.5,572.5 Z M 556.5,594.5 C 557.807,599.316 558.807,604.316 559.5,609.5C 557.5,609.5 555.5,609.5 553.5,609.5C 554.378,604.445 555.378,599.445 556.5,594.5 Z"/></g>
<g><path style="opacity:0.953" fill="#01335d" d="M 618.5,572.5 C 622.5,572.5 626.5,572.5 630.5,572.5C 630.5,580.5 630.5,588.5 630.5,596.5C 634.167,596.5 637.833,596.5 641.5,596.5C 641.5,588.5 641.5,580.5 641.5,572.5C 645.167,572.5 648.833,572.5 652.5,572.5C 652.5,591.833 652.5,611.167 652.5,630.5C 648.833,630.5 645.167,630.5 641.5,630.5C 641.5,622.833 641.5,615.167 641.5,607.5C 637.833,607.5 634.167,607.5 630.5,607.5C 630.5,615.167 630.5,622.833 630.5,630.5C 626.5,630.5 622.5,630.5 618.5,630.5C 618.5,611.167 618.5,591.833 618.5,572.5 Z"/></g>
<g><path style="opacity:0.988" fill="#01335e" d="M 661.5,572.5 C 665.5,572.5 669.5,572.5 673.5,572.5C 673.5,591.833 673.5,611.167 673.5,630.5C 669.5,630.5 665.5,630.5 661.5,630.5C 661.5,611.167 661.5,591.833 661.5,572.5 Z"/></g>
<g><path style="opacity:0.955" fill="#01335e" d="M 682.5,572.5 C 685.898,572.18 689.232,572.513 692.5,573.5C 696.943,583.385 701.109,593.385 705,603.5C 705.5,593.172 705.666,582.839 705.5,572.5C 708.833,572.5 712.167,572.5 715.5,572.5C 715.5,591.833 715.5,611.167 715.5,630.5C 712.428,630.817 709.428,630.484 706.5,629.5C 701.726,619.618 697.226,609.618 693,599.5C 692.5,609.828 692.334,620.161 692.5,630.5C 689.167,630.5 685.833,630.5 682.5,630.5C 682.5,611.167 682.5,591.833 682.5,572.5 Z"/></g>
<g><path style="opacity:0.931" fill="#01335e" d="M 724.5,572.5 C 733.833,572.5 743.167,572.5 752.5,572.5C 752.5,575.833 752.5,579.167 752.5,582.5C 747.167,582.5 741.833,582.5 736.5,582.5C 736.5,586.833 736.5,591.167 736.5,595.5C 740.167,595.5 743.833,595.5 747.5,595.5C 747.5,598.833 747.5,602.167 747.5,605.5C 743.833,605.5 740.167,605.5 736.5,605.5C 736.5,610.167 736.5,614.833 736.5,619.5C 741.833,619.5 747.167,619.5 752.5,619.5C 752.5,623.167 752.5,626.833 752.5,630.5C 743.167,630.5 733.833,630.5 724.5,630.5C 724.5,611.167 724.5,591.833 724.5,572.5 Z"/></g>
<g><path style="opacity:0.952" fill="#01335e" d="M 770.5,572.5 C 774.167,572.5 777.833,572.5 781.5,572.5C 781.5,588.167 781.5,603.833 781.5,619.5C 786.833,619.5 792.167,619.5 797.5,619.5C 797.5,623.167 797.5,626.833 797.5,630.5C 788.5,630.5 779.5,630.5 770.5,630.5C 770.5,611.167 770.5,591.833 770.5,572.5 Z"/></g>
<g><path style="opacity:0.971" fill="#01335e" d="M 803.5,572.5 C 812.833,572.5 822.167,572.5 831.5,572.5C 831.5,575.833 831.5,579.167 831.5,582.5C 826.167,582.5 820.833,582.5 815.5,582.5C 815.5,586.833 815.5,591.167 815.5,595.5C 819.167,595.5 822.833,595.5 826.5,595.5C 826.5,598.833 826.5,602.167 826.5,605.5C 822.833,605.5 819.167,605.5 815.5,605.5C 815.5,610.167 815.5,614.833 815.5,619.5C 820.833,619.5 826.167,619.5 831.5,619.5C 831.5,623.167 831.5,626.833 831.5,630.5C 822.167,630.5 812.833,630.5 803.5,630.5C 803.5,611.167 803.5,591.833 803.5,572.5 Z"/></g>
<g><path style="opacity:0.951" fill="#01335e" d="M 847.5,572.5 C 851.767,572.203 855.934,572.536 860,573.5C 863.644,592.219 867.477,610.885 871.5,629.5C 867.555,630.491 863.555,630.824 859.5,630.5C 859.048,627.124 858.382,623.791 857.5,620.5C 854.572,619.516 851.572,619.183 848.5,619.5C 847.833,623.167 847.167,626.833 846.5,630.5C 842.774,630.823 839.107,630.489 835.5,629.5C 839.506,610.471 843.506,591.471 847.5,572.5 Z M 852.5,593.5 C 854.243,598.448 855.576,603.614 856.5,609C 854.527,609.495 852.527,609.662 850.5,609.5C 851.384,604.196 852.051,598.863 852.5,593.5 Z"/></g>
<g><path style="opacity:0.942" fill="#01335e" d="M 876.5,572.5 C 883.841,572.334 891.174,572.5 898.5,573C 904.583,574.417 907.749,578.25 908,584.5C 909.591,591.251 908.091,597.084 903.5,602C 905.81,603.637 907.31,605.804 908,608.5C 908.089,615.971 908.923,623.305 910.5,630.5C 907.15,630.665 903.817,630.498 900.5,630C 899.667,629.167 898.833,628.333 898,627.5C 897.667,621.833 897.333,616.167 897,610.5C 895.323,606.949 892.49,605.616 888.5,606.5C 888.5,614.5 888.5,622.5 888.5,630.5C 884.5,630.5 880.5,630.5 876.5,630.5C 876.5,611.167 876.5,591.833 876.5,572.5 Z M 888.5,582.5 C 895.239,580.74 897.905,583.24 896.5,590C 897.905,596.76 895.239,599.26 888.5,597.5C 888.5,592.5 888.5,587.5 888.5,582.5 Z"/></g>
<g><path style="opacity:0.915" fill="#01335e" d="M 916.5,572.5 C 920.106,572.211 923.606,572.544 927,573.5C 931.195,583.086 935.195,592.752 939,602.5C 939.5,592.506 939.666,582.506 939.5,572.5C 943.167,572.5 946.833,572.5 950.5,572.5C 950.5,591.833 950.5,611.167 950.5,630.5C 947.223,630.784 944.057,630.451 941,629.5C 936.667,620.167 932.333,610.833 928,601.5C 927.5,611.161 927.334,620.828 927.5,630.5C 923.833,630.5 920.167,630.5 916.5,630.5C 916.5,611.167 916.5,591.833 916.5,572.5 Z"/></g>
<g><path style="opacity:0.945" fill="#01335e" d="M 959.5,572.5 C 963.167,572.5 966.833,572.5 970.5,572.5C 970.5,591.833 970.5,611.167 970.5,630.5C 966.833,630.5 963.167,630.5 959.5,630.5C 959.5,611.167 959.5,591.833 959.5,572.5 Z"/></g>
<g><path style="opacity:0.931" fill="#01335e" d="M 979.5,572.5 C 983.106,572.211 986.606,572.544 990,573.5C 994,582.833 998,592.167 1002,601.5C 1002.5,591.839 1002.67,582.172 1002.5,572.5C 1006.17,572.5 1009.83,572.5 1013.5,572.5C 1013.5,591.833 1013.5,611.167 1013.5,630.5C 1010.22,630.784 1007.06,630.451 1004,629.5C 999.667,620.167 995.333,610.833 991,601.5C 990.5,611.161 990.334,620.828 990.5,630.5C 986.833,630.5 983.167,630.5 979.5,630.5C 979.5,611.167 979.5,591.833 979.5,572.5 Z"/></g>
<g><path style="opacity:0.95" fill="#01335e" d="M 1080.5,572.5 C 1085.32,571.935 1089.82,572.601 1094,574.5C 1097.95,593.099 1101.45,611.766 1104.5,630.5C 1100.83,630.5 1097.17,630.5 1093.5,630.5C 1092.83,626.833 1092.17,623.167 1091.5,619.5C 1088.43,619.183 1085.43,619.516 1082.5,620.5C 1081.45,623.757 1080.78,627.09 1080.5,630.5C 1076.83,630.5 1073.17,630.5 1069.5,630.5C 1073.42,611.214 1077.09,591.881 1080.5,572.5 Z M 1086.5,592.5 C 1088.32,597.893 1089.32,603.559 1089.5,609.5C 1087.83,609.5 1086.17,609.5 1084.5,609.5C 1085.28,603.847 1085.94,598.18 1086.5,592.5 Z"/></g>
<g><path style="opacity:0.94" fill="#01335e" d="M 1110.5,572.5 C 1114.11,572.211 1117.61,572.544 1121,573.5C 1125.2,583.086 1129.2,592.752 1133,602.5C 1133.5,592.506 1133.67,582.506 1133.5,572.5C 1137.17,572.5 1140.83,572.5 1144.5,572.5C 1144.5,591.833 1144.5,611.167 1144.5,630.5C 1141.22,630.784 1138.06,630.451 1135,629.5C 1130.67,620.167 1126.33,610.833 1122,601.5C 1121.5,611.161 1121.33,620.828 1121.5,630.5C 1117.83,630.5 1114.17,630.5 1110.5,630.5C 1110.5,611.167 1110.5,591.833 1110.5,572.5 Z"/></g>
<g><path style="opacity:0.956" fill="#01335e" d="M 1153.5,572.5 C 1160.17,572.334 1166.84,572.5 1173.5,573C 1179.13,573.957 1182.96,577.124 1185,582.5C 1185.67,595.167 1185.67,607.833 1185,620.5C 1182.86,626.307 1178.69,629.474 1172.5,630C 1166.18,630.5 1159.84,630.666 1153.5,630.5C 1153.5,611.167 1153.5,591.833 1153.5,572.5 Z M 1164.5,582.5 C 1167.6,582.154 1170.44,582.821 1173,584.5C 1174.12,590.061 1174.62,595.727 1174.5,601.5C 1174.62,607.273 1174.12,612.939 1173,618.5C 1170.44,620.179 1167.6,620.846 1164.5,620.5C 1164.5,607.833 1164.5,595.167 1164.5,582.5 Z"/></g>
<g><path style="opacity:0.942" fill="#01335d" d="M 1204.5,572.5 C 1211.84,572.334 1219.17,572.5 1226.5,573C 1230.9,573.73 1233.73,576.23 1235,580.5C 1235.67,586.5 1235.67,592.5 1235,598.5C 1233.83,599.667 1232.67,600.833 1231.5,602C 1233.05,603.214 1234.22,604.714 1235,606.5C 1235.84,614.65 1237,622.65 1238.5,630.5C 1235.15,630.665 1231.82,630.498 1228.5,630C 1227.69,629.692 1227.03,629.192 1226.5,628.5C 1224.9,621.958 1224.06,615.292 1224,608.5C 1221.86,606.722 1219.36,606.055 1216.5,606.5C 1216.5,614.5 1216.5,622.5 1216.5,630.5C 1212.5,630.5 1208.5,630.5 1204.5,630.5C 1204.5,611.167 1204.5,591.833 1204.5,572.5 Z M 1216.5,582.5 C 1223.24,580.74 1225.91,583.24 1224.5,590C 1225.91,596.76 1223.24,599.26 1216.5,597.5C 1216.5,592.5 1216.5,587.5 1216.5,582.5 Z"/></g>
<g><path style="opacity:0.939" fill="#01335e" d="M 1244.5,572.5 C 1253.83,572.5 1263.17,572.5 1272.5,572.5C 1272.5,575.833 1272.5,579.167 1272.5,582.5C 1266.83,582.5 1261.17,582.5 1255.5,582.5C 1255.5,586.833 1255.5,591.167 1255.5,595.5C 1259.5,595.5 1263.5,595.5 1267.5,595.5C 1267.5,598.833 1267.5,602.167 1267.5,605.5C 1263.5,605.5 1259.5,605.5 1255.5,605.5C 1255.5,610.167 1255.5,614.833 1255.5,619.5C 1261.17,619.5 1266.83,619.5 1272.5,619.5C 1272.5,623.167 1272.5,626.833 1272.5,630.5C 1263.17,630.5 1253.83,630.5 1244.5,630.5C 1244.5,611.167 1244.5,591.833 1244.5,572.5 Z"/></g>
<g><path style="opacity:0.95" fill="#01335d" d="M 1287.5,572.5 C 1291.83,572.5 1296.17,572.5 1300.5,572.5C 1304.42,591.786 1308.09,611.119 1311.5,630.5C 1307.5,630.5 1303.5,630.5 1299.5,630.5C 1299.28,626.821 1298.94,623.154 1298.5,619.5C 1295.17,619.5 1291.83,619.5 1288.5,619.5C 1288.06,623.154 1287.72,626.821 1287.5,630.5C 1283.83,630.5 1280.17,630.5 1276.5,630.5C 1279.91,611.119 1283.58,591.786 1287.5,572.5 Z M 1293.5,592.5 C 1294.8,597.984 1295.8,603.651 1296.5,609.5C 1294.47,609.662 1292.47,609.495 1290.5,609C 1291.87,603.598 1292.87,598.098 1293.5,592.5 Z"/></g>
<g><path style="opacity:0.948" fill="#01335e" d="M 1395.5,572.5 C 1399.11,572.211 1402.61,572.544 1406,573.5C 1410.33,583.5 1414.67,593.5 1419,603.5C 1419.5,593.172 1419.67,582.839 1419.5,572.5C 1422.83,572.5 1426.17,572.5 1429.5,572.5C 1429.5,591.833 1429.5,611.167 1429.5,630.5C 1426.22,630.784 1423.06,630.451 1420,629.5C 1415.94,619.715 1411.61,610.048 1407,600.5C 1406.5,610.494 1406.33,620.494 1406.5,630.5C 1402.83,630.5 1399.17,630.5 1395.5,630.5C 1395.5,611.167 1395.5,591.833 1395.5,572.5 Z"/></g>
<g><path style="opacity:0.946" fill="#01335e" d="M 1438.5,572.5 C 1442.17,572.5 1445.83,572.5 1449.5,572.5C 1449.5,591.833 1449.5,611.167 1449.5,630.5C 1445.83,630.5 1442.17,630.5 1438.5,630.5C 1438.5,611.167 1438.5,591.833 1438.5,572.5 Z"/></g>
<g><path style="opacity:0.95" fill="#01335e" d="M 1458.5,572.5 C 1462.17,572.5 1465.83,572.5 1469.5,572.5C 1473.09,583.028 1477.26,593.361 1482,603.5C 1482.5,593.172 1482.67,582.839 1482.5,572.5C 1485.83,572.5 1489.17,572.5 1492.5,572.5C 1492.5,591.833 1492.5,611.167 1492.5,630.5C 1489.22,630.784 1486.06,630.451 1483,629.5C 1478.94,619.715 1474.61,610.048 1470,600.5C 1469.5,610.494 1469.33,620.494 1469.5,630.5C 1465.83,630.5 1462.17,630.5 1458.5,630.5C 1458.5,611.167 1458.5,591.833 1458.5,572.5 Z"/></g>
</svg>
